<svg width="24" height="24" viewBox="0 0 24 24" fill="none" xmlns="http://www.w3.org/2000/svg">
<path d="M18 10.997C17.6078 10.1967 16.5481 9.02147 14.3703 9.07148C14.3703 9.07148 12.6431 8.99646 10.6906 8.99646C8.7382 8.99646 7.82413 9.04218 6.26004 9.07148C5.25877 9.04647 3.35634 9.27154 2.48023 11.3471C1.9045 13.0975 1.87946 16.7735 2.22991 18.624C2.30501 19.5743 2.80564 20.8997 4.35762 21.5999C5.30883 22.1 6.83578 21.8999 7.98725 22M5.9847 8.19624C5.93463 5.82059 5.8345 3.94508 8.58801 2.39466C9.51419 2.01956 10.8909 1.69447 12.5931 2.49469C14.3703 3.56998 14.5917 4.70796 14.7458 4.99537C15.1713 6.12068 14.9461 7.72111 14.9961 8.37129" stroke="#334155" stroke-width="1.5" stroke-linecap="round"/>
<path d="M15.5 19.7358C15.5 20.9799 14.4911 21.9663 13.2552 21.9663C12.0194 21.9663 11 20.9799 11 19.7358C11 18.4918 12.0194 17.4922 13.2552 17.4922C14.4911 17.4922 15.5 18.4918 15.5 19.7358Z" stroke="#334155" stroke-width="1.5"/>
<path d="M15.2246 17.7899L17.2151 15.8472M17.2151 15.8472L18.6259 14.4896C18.9496 14.2139 19.5996 13.5682 20.3726 14.3079L21.9996 15.8472M17.2151 15.8472L18.8246 17.3926" stroke="#334155" stroke-width="1.5" stroke-linecap="round"/>
</svg>
