<svg width="24" height="24" viewBox="0 0 24 24" fill="none" xmlns="http://www.w3.org/2000/svg">
<path d="M18 13.4955V14.9955C18 18.2952 18 19.9452 16.9749 20.9704C15.9497 21.9955 14.2998 21.9955 11 21.9955C7.70017 21.9955 6.05025 21.9955 5.02513 20.9704C4 19.9452 4 18.2952 4 14.9955V8.99543C4 5.6956 4 4.04568 5.02513 3.02056C5.88151 2.16418 7.17392 2.02321 9.5 2" stroke="#334155" stroke-width="1.5" stroke-linecap="round"/>
<path d="M16.1047 2.50546L16.7206 3.74751C16.8046 3.92041 17.0286 4.08624 17.2175 4.11799L18.3339 4.30503C19.0479 4.42501 19.2158 4.94721 18.7014 5.46234L17.8334 6.33748C17.6865 6.48567 17.606 6.77148 17.6515 6.97609L17.8999 8.05933C18.0959 8.91683 17.6445 9.24849 16.8921 8.80035L15.8457 8.17581C15.6567 8.0629 15.3452 8.0629 15.1528 8.17581L14.1064 8.80035C13.3575 9.24849 12.9025 8.91326 13.0985 8.05933L13.347 6.97609C13.3925 6.77148 13.312 6.48567 13.165 6.33748L12.2971 5.46234C11.7862 4.94721 11.9506 4.42501 12.6646 4.30503L13.7809 4.11799C13.9664 4.08624 14.1904 3.92041 14.2744 3.74751L14.8903 2.50546C15.2263 1.83151 15.7722 1.83151 16.1047 2.50546Z" stroke="#334155" stroke-width="1.5" stroke-linecap="round" stroke-linejoin="round"/>
<path d="M10 18.9961H12" stroke="#334155" stroke-width="1.5" stroke-linecap="round" stroke-linejoin="round"/>
</svg>
