<svg width="20" height="20" viewBox="0 0 20 20" fill="none" xmlns="http://www.w3.org/2000/svg">
<path d="M2.5 10.8327V6.66602H17.5V10.8327C17.5 13.9753 17.5 15.5468 16.5237 16.523C15.5474 17.4993 13.976 17.4993 10.8333 17.4993H9.16667C6.02397 17.4993 4.45262 17.4993 3.47631 16.523C2.5 15.5468 2.5 13.9753 2.5 10.8327Z" stroke="#334155" stroke-width="1.25" stroke-linecap="round" stroke-linejoin="round"/>
<path d="M2.5 6.66667L3.22115 5.0641C3.78045 3.82123 4.06009 3.19979 4.62692 2.84989C5.19376 2.5 5.92083 2.5 7.375 2.5H12.625C14.0792 2.5 14.8063 2.5 15.3731 2.84989C15.9399 3.19979 16.2196 3.82123 16.7788 5.0641L17.5 6.66667" stroke="#334155" stroke-width="1.25" stroke-linecap="round"/>
<path d="M10 6.66667V2.5" stroke="#334155" stroke-width="1.25" stroke-linecap="round"/>
<path d="M7.08268 12.9173H11.666C12.5865 12.9173 13.3327 12.1712 13.3327 11.2507C13.3327 10.3302 12.5865 9.58398 11.666 9.58398H10.8327M8.33268 14.584L6.66602 12.9173L8.33268 11.2507" stroke="#334155" stroke-width="1.25" stroke-linecap="round" stroke-linejoin="round"/>
</svg>
