<svg width="21" height="20" viewBox="0 0 21 20" fill="none" xmlns="http://www.w3.org/2000/svg">
<path d="M14.6667 16.6673C15.5871 16.6673 16.3333 15.9211 16.3333 15.0007C16.3333 14.0802 15.5871 13.334 14.6667 13.334C13.7462 13.334 13 14.0802 13 15.0007C13 15.9211 13.7462 16.6673 14.6667 16.6673Z" stroke="#334155" stroke-width="1.25"/>
<path d="M6.33268 16.6673C7.25316 16.6673 7.99935 15.9211 7.99935 15.0007C7.99935 14.0802 7.25316 13.334 6.33268 13.334C5.41221 13.334 4.66602 14.0802 4.66602 15.0007C4.66602 15.9211 5.41221 16.6673 6.33268 16.6673Z" stroke="#334155" stroke-width="1.25"/>
<path d="M4.66602 14.9777C3.75208 14.9322 3.18193 14.7962 2.77621 14.3905C2.37048 13.9847 2.23453 13.4146 2.18897 12.5007M7.99935 15.0007H12.9993M16.3327 14.9777C17.2466 14.9322 17.8168 14.7962 18.2225 14.3905C18.8327 13.7802 18.8327 12.7982 18.8327 10.834V9.16732H14.916C14.2956 9.16732 13.9853 9.16732 13.7343 9.08573C13.2269 8.9209 12.8291 8.52307 12.6643 8.01568C12.5827 7.76463 12.5827 7.45441 12.5827 6.83398C12.5827 5.90334 12.5827 5.43803 12.4603 5.06144C12.213 4.30035 11.6163 3.70363 10.8553 3.45634C10.4787 3.33398 10.0133 3.33398 9.08268 3.33398H2.16602" stroke="#334155" stroke-width="1.25" stroke-linecap="round" stroke-linejoin="round"/>
<path d="M2.16602 6.66602H7.16602" stroke="#334155" stroke-width="1.25" stroke-linecap="round" stroke-linejoin="round"/>
<path d="M2.16602 9.16602H5.49935" stroke="#334155" stroke-width="1.25" stroke-linecap="round" stroke-linejoin="round"/>
<path d="M12.584 5H14.1017C15.3145 5 15.9208 5 16.4143 5.29476C16.9078 5.58952 17.1953 6.12343 17.7703 7.19125L18.834 9.16667" stroke="#334155" stroke-width="1.25" stroke-linecap="round" stroke-linejoin="round"/>
</svg>
