<svg width="20" height="20" viewBox="0 0 20 20" fill="none" xmlns="http://www.w3.org/2000/svg">
<path d="M12.5 6.25065C12.5 6.25065 12.9167 6.25065 13.3333 7.08398C13.3333 7.08398 14.6568 5.00065 15.8333 4.58398" stroke="#334155" stroke-width="1.25" stroke-linecap="round" stroke-linejoin="round"/>
<path d="M18.3333 5.83268C18.3333 8.13387 16.4678 9.99935 14.1667 9.99935C11.8655 9.99935 10 8.13387 10 5.83268C10 3.5315 11.8655 1.66602 14.1667 1.66602C16.4678 1.66602 18.3333 3.5315 18.3333 5.83268Z" stroke="#334155" stroke-width="1.25" stroke-linecap="round"/>
<path d="M18.9577 11.0366C18.9571 10.6913 18.6768 10.412 18.3316 10.4127C17.9864 10.4133 17.7071 10.6936 17.7077 11.0388L18.9577 11.0366ZM7.5542 5.62695C7.89937 5.62499 8.17761 5.34359 8.17566 4.99842C8.1737 4.65325 7.8923 4.37501 7.54713 4.37696L7.5542 5.62695ZM11.2494 17.7082H8.74935V18.9582H11.2494V17.7082ZM8.74935 17.7082C7.16861 17.7082 6.03562 17.7073 5.16514 17.6089C4.30615 17.5118 3.78567 17.3271 3.39292 17.0169L2.61821 17.9979C3.27102 18.5135 4.05637 18.7416 5.02483 18.851C5.98182 18.9591 7.19795 18.9582 8.74935 18.9582V17.7082ZM1.04102 11.6665C1.04102 13.1239 1.03982 14.2763 1.1557 15.185C1.27378 16.1109 1.52169 16.8657 2.07683 17.4883L3.00987 16.6565C2.68767 16.2951 2.49692 15.8208 2.39567 15.0268C2.29221 14.2156 2.29102 13.157 2.29102 11.6665H1.04102ZM3.39292 17.0169C3.25389 16.9072 3.12577 16.7865 3.00987 16.6565L2.07683 17.4883C2.24158 17.6732 2.42277 17.8436 2.61821 17.9979L3.39292 17.0169ZM17.7077 11.6665C17.7077 13.157 17.7065 14.2156 17.603 15.0268C17.5018 15.8208 17.311 16.2951 16.9888 16.6565L17.9219 17.4883C18.477 16.8657 18.7249 16.1109 18.843 15.185C18.9588 14.2763 18.9577 13.1239 18.9577 11.6665H17.7077ZM11.2494 18.9582C12.8008 18.9582 14.0168 18.9591 14.9739 18.851C15.9424 18.7416 16.7277 18.5135 17.3805 17.9979L16.6058 17.0169C16.213 17.3271 15.6925 17.5118 14.8335 17.6089C13.9631 17.7073 12.8301 17.7082 11.2494 17.7082V18.9582ZM16.9888 16.6565C16.8729 16.7865 16.7449 16.9072 16.6058 17.0169L17.3805 17.9979C17.5759 17.8436 17.7571 17.6732 17.9219 17.4883L16.9888 16.6565ZM2.29102 11.6665C2.29102 10.176 2.29221 9.11743 2.39567 8.30617C2.49692 7.51217 2.68767 7.0379 3.00987 6.67651L2.07683 5.84468C1.52169 6.46736 1.27378 7.22209 1.1557 8.14805C1.03982 9.05676 1.04102 10.2091 1.04102 11.6665H2.29102ZM2.61821 5.33508C2.42277 5.48942 2.24158 5.65989 2.07683 5.84468L3.00987 6.67651C3.12577 6.54651 3.25389 6.42585 3.39292 6.31606L2.61821 5.33508ZM18.9577 11.6665C18.9577 11.4505 18.958 11.2391 18.9577 11.0366L17.7077 11.0388C17.708 11.2399 17.7077 11.4475 17.7077 11.6665H18.9577ZM7.54713 4.37696C6.37417 4.3836 5.41944 4.41062 4.63733 4.53405C3.84352 4.65933 3.18153 4.8902 2.61821 5.33508L3.39292 6.31606C3.73232 6.04803 4.16705 5.87374 4.8322 5.76877C5.50905 5.66195 6.37551 5.63361 7.5542 5.62695L7.54713 4.37696Z" fill="#334155"/>
<path d="M8.33398 15H9.58398" stroke="#334155" stroke-width="1.25" stroke-miterlimit="10" stroke-linecap="round" stroke-linejoin="round"/>
<path d="M12.084 15H15.0007" stroke="#334155" stroke-width="1.25" stroke-miterlimit="10" stroke-linecap="round" stroke-linejoin="round"/>
<path d="M2.08398 9.16602H8.33398" stroke="#334155" stroke-width="1.25" stroke-linecap="round" stroke-linejoin="round"/>
</svg>
