<svg width="21" height="20" viewBox="0 0 21 20" fill="none" xmlns="http://www.w3.org/2000/svg">
<path d="M10.2534 9.16602H10.2609M6.92383 9.16602H6.9313" stroke="#334155" stroke-width="1.25" stroke-linecap="round" stroke-linejoin="round"/>
<path d="M18.5501 7.5C18.5714 8.1054 18.5827 8.52517 18.5827 9.1675C18.5827 9.80983 18.5714 10.4368 18.5501 11.0423C18.4803 13.0202 18.4454 14.0091 17.6409 14.8197C16.8365 15.6302 15.8196 15.6737 13.7858 15.7607C13.1742 15.7868 12.5408 15.8064 11.8904 15.8188C11.2728 15.8304 10.964 15.8363 10.6927 15.9397C10.4213 16.043 10.1931 16.2388 9.73643 16.6303L7.92021 18.1877C7.80996 18.2822 7.66951 18.3342 7.52427 18.3342C7.18834 18.3342 6.91602 18.0618 6.91602 17.7259V15.7691C6.84803 15.7663 6.78031 15.7636 6.71284 15.7607C4.67909 15.6737 3.66222 15.6302 2.85774 14.8197C2.05326 14.0091 2.01837 13.0202 1.94859 11.0423C1.92723 10.4368 1.91602 9.80983 1.91602 9.1675C1.91602 8.52517 1.92723 7.89816 1.94859 7.29276C2.01837 5.31487 2.05326 4.32592 2.85774 3.51538C3.66222 2.70485 4.6791 2.66134 6.71285 2.57433C7.31644 2.5485 7.94118 2.51236 8.58268 2.5" stroke="#334155" stroke-width="1.25" stroke-linecap="round" stroke-linejoin="round"/>
<path d="M14.9932 1.31538L15.5798 2.49828C15.6598 2.66294 15.8731 2.82088 16.0531 2.85112L17.1163 3.02925C17.7962 3.14352 17.9562 3.64085 17.4662 4.13145L16.6396 4.96491C16.4997 5.10605 16.423 5.37825 16.4664 5.57311L16.703 6.60478C16.8896 7.42144 16.4597 7.73731 15.7431 7.31051L14.7466 6.71571C14.5666 6.60818 14.2699 6.60818 14.0867 6.71571L13.0901 7.31051C12.3768 7.73731 11.9435 7.41804 12.1302 6.60478L12.3668 5.57311C12.4102 5.37825 12.3335 5.10605 12.1935 4.96491L11.3669 4.13145C10.8803 3.64085 11.037 3.14352 11.7169 3.02925L12.7801 2.85112C12.9568 2.82088 13.1701 2.66294 13.2501 2.49828L13.8367 1.31538C14.1567 0.67352 14.6766 0.67352 14.9932 1.31538Z" stroke="#334155" stroke-width="1.25" stroke-linecap="round" stroke-linejoin="round"/>
</svg>
