<svg width="21" height="20" viewBox="0 0 21 20" fill="none" xmlns="http://www.w3.org/2000/svg">
<path d="M16.5827 12.5H4.91602C3.5353 12.5 2.41602 13.6193 2.41602 15C2.41602 16.3807 3.5353 17.5 4.91602 17.5H16.5827C17.9634 17.5 19.0827 16.3807 19.0827 15C19.0827 13.6193 17.9634 12.5 16.5827 12.5Z" stroke="#334155" stroke-width="1.25"/>
<path d="M5.75 7.5C5.75 5.14297 5.75 3.96447 6.48223 3.23223C7.21447 2.5 8.39297 2.5 10.75 2.5C13.107 2.5 14.2855 2.5 15.0177 3.23223C15.75 3.96447 15.75 5.14297 15.75 7.5C15.75 9.857 15.75 11.0355 15.0177 11.7677C14.2855 12.5 13.107 12.5 10.75 12.5C8.39297 12.5 7.21447 12.5 6.48223 11.7677C5.75 11.0355 5.75 9.857 5.75 7.5Z" stroke="#334155" stroke-width="1.25"/>
<path d="M10.7469 15H10.7544M6.58398 15H6.59146M14.9098 15H14.9173" stroke="#334155" stroke-width="1.25" stroke-linecap="round" stroke-linejoin="round"/>
<path d="M9.5 5H12" stroke="#334155" stroke-width="1.25" stroke-linecap="round" stroke-linejoin="round"/>
</svg>
