<svg width="26" height="18" viewBox="0 0 26 18" fill="none" xmlns="http://www.w3.org/2000/svg">
<rect x="0.375" y="0.375" width="25.25" height="17.25" fill="#F8FAFC"/>
<rect x="0.375" y="0.375" width="25.25" height="17.25" stroke="#CBD5E1" stroke-width="0.75"/>
<path d="M7.16602 9.00065C7.16602 6.93712 7.16602 5.90535 7.78015 5.21651C7.87838 5.10634 7.98664 5.00444 8.1037 4.91199C8.83559 4.33398 9.93184 4.33398 12.1243 4.33398H13.8743C16.0669 4.33398 17.1631 4.33398 17.895 4.91199C18.012 5.00444 18.1203 5.10634 18.2185 5.21651C18.8327 5.90535 18.8327 6.93712 18.8327 9.00065C18.8327 11.0642 18.8327 12.0959 18.2185 12.7848C18.1203 12.895 18.012 12.9968 17.895 13.0893C17.1631 13.6673 16.0669 13.6673 13.8743 13.6673H12.1243C9.93184 13.6673 8.83559 13.6673 8.1037 13.0893C7.98664 12.9968 7.87838 12.895 7.78015 12.7848C7.16602 12.0959 7.16602 11.0642 7.16602 9.00065Z" stroke="#334155" stroke-linecap="round" stroke-linejoin="round"/>
<path d="M11.834 11.334H12.709" stroke="#334155" stroke-miterlimit="10" stroke-linecap="round" stroke-linejoin="round"/>
<path d="M14.459 11.334H16.5007" stroke="#334155" stroke-miterlimit="10" stroke-linecap="round" stroke-linejoin="round"/>
<path d="M7.16602 7.25H18.8327" stroke="#334155" stroke-linejoin="round"/>
</svg>
