<svg width="14" height="14" viewBox="0 0 14 14" fill="none" xmlns="http://www.w3.org/2000/svg">
<path d="M12.8327 6.12565L7.51414 1.64686C7.37006 1.52553 7.18771 1.45898 6.99935 1.45898C6.81099 1.45898 6.62864 1.52553 6.48456 1.64686L1.16602 6.12565" stroke="#334155" stroke-linecap="round" stroke-linejoin="round"/>
<path d="M11.9577 2.91602V9.04102C11.9577 10.6909 11.9577 11.5159 11.4451 12.0284C10.9325 12.541 10.1076 12.541 8.45768 12.541H5.54102C3.8911 12.541 3.06614 12.541 2.55358 12.0284C2.04102 11.5159 2.04102 10.6909 2.04102 9.04102V5.54102" stroke="#334155" stroke-linecap="round" stroke-linejoin="round"/>
<path d="M8.75 12.5417V9.625C8.75 8.80005 8.75 8.38757 8.49374 8.13126C8.23743 7.875 7.82495 7.875 7 7.875C6.17505 7.875 5.76256 7.875 5.50628 8.13126C5.25 8.38757 5.25 8.80005 5.25 9.625V12.5417" stroke="#334155" stroke-linecap="round" stroke-linejoin="round"/>
</svg>
