<svg width="21" height="20" viewBox="0 0 21 20" fill="none" xmlns="http://www.w3.org/2000/svg">
<path d="M15.3074 17.734C14.3921 18.6213 13.3927 18.4812 12.4306 18.0609C11.4125 17.6312 10.4785 17.6125 9.40431 18.0609C8.05929 18.64 7.34942 18.4719 6.54615 17.734C1.98803 13.0357 2.66054 5.881 7.83513 5.61947C9.09608 5.68485 9.97408 6.31066 10.712 6.3667C11.8141 6.14253 12.8696 5.49804 14.0465 5.5821C15.4569 5.69419 16.5217 6.25461 17.2222 7.26338C14.308 9.01003 14.9992 12.8489 17.6706 13.9231C17.1382 15.3241 16.447 16.7159 15.2981 17.7433L15.3074 17.734ZM10.6186 5.56342C10.4785 3.48051 12.1691 1.76188 14.1119 1.59375C14.3828 4.00357 11.9262 5.79693 10.6186 5.56342Z" fill="#111827"/>
</svg>
