<svg width="15" height="15" viewBox="0 0 15 15" fill="none" xmlns="http://www.w3.org/2000/svg">
<path d="M5.7793 9.11294C6.05086 9.39011 6.375 9.6103 6.73274 9.76062C7.09047 9.91094 7.4746 9.98837 7.86263 9.98837C8.25066 9.98837 8.63479 9.91094 8.99252 9.76062C9.35026 9.6103 9.6744 9.39011 9.94596 9.11294L13.2793 5.77961C13.8318 5.22708 14.1422 4.47768 14.1422 3.69628C14.1422 2.91488 13.8318 2.16548 13.2793 1.61294C12.7268 1.06041 11.9774 0.75 11.196 0.75C10.4146 0.75 9.66516 1.06041 9.11263 1.61294L8.69596 2.02961" stroke="#718096" stroke-width="1.5" stroke-linecap="round" stroke-linejoin="round"/>
<path d="M9.11294 5.77777C8.84138 5.5006 8.51724 5.28041 8.15951 5.13009C7.80177 4.97977 7.41764 4.90234 7.02961 4.90234C6.64158 4.90234 6.25745 4.97977 5.89972 5.13009C5.54199 5.28041 5.21784 5.5006 4.94628 5.77777L1.61294 9.1111C1.06041 9.66364 0.75 10.413 0.75 11.1944C0.75 11.9758 1.06041 12.7252 1.61294 13.2778C2.16548 13.8303 2.91488 14.1407 3.69628 14.1407C4.47768 14.1407 5.22708 13.8303 5.77961 13.2778L6.19628 12.8611" stroke="#718096" stroke-width="1.5" stroke-linecap="round" stroke-linejoin="round"/>
</svg>
