<svg width="74" height="86" viewBox="0 0 74 86" fill="none" xmlns="http://www.w3.org/2000/svg">
<path d="M72.2025 36C72.2025 44.1481 69.4873 51.7037 64.9374 57.7778C62.4423 61.037 59.4335 63.9259 55.9844 66.1481C50.4071 69.8519 43.7291 72 36.5374 72C16.7968 72 0.798828 55.8519 0.798828 36C0.798828 16.0741 16.7968 0 36.464 0C43.6557 0 50.3338 2.14815 55.911 5.77778C59.3601 8 62.3689 10.8889 64.864 14.1481C69.4873 20.2963 72.2025 27.8519 72.2025 36Z" fill="#FEF7F7"/>
<path d="M2.55921 11.333C3.21968 11.333 3.73337 10.7404 3.73337 10.0737C3.73337 9.40705 3.21968 8.81445 2.48583 8.81445C1.82536 8.81445 1.23828 9.33297 1.23828 10.0737C1.31167 10.7404 1.89875 11.333 2.55921 11.333Z" fill="#E43131"/>
<path d="M9.29833 69.5595C9.95879 69.5595 10.5459 69.041 10.5459 68.3003C10.5459 67.6336 10.0322 67.041 9.29833 67.041C8.63786 67.041 8.05078 67.5595 8.05078 68.3003C8.12417 68.9669 8.63786 69.5595 9.29833 69.5595Z" fill="url(#paint0_linear_1837_55398)"/>
<path d="M68.6162 25.7336C69.717 24.6966 69.7904 22.9929 68.763 21.8818C67.7356 20.7707 66.0477 20.6966 64.8736 21.7336C63.7728 22.7707 63.6994 24.4744 64.7268 25.5855C65.7542 26.6225 67.5154 26.6966 68.6162 25.7336Z" fill="#FFC4C4"/>
<g opacity="0.57">
<path d="M20.2701 0L20.2942 0.55415C20.2942 0.567124 20.2849 0.578269 20.2701 0.580122C20.2571 0.580122 20.246 0.570832 20.2441 0.556005V0.55415L20.2701 0Z" fill="#FB3963"/>
<path d="M20.3145 1.10524L20.3331 1.65939C20.3349 1.6946 20.3071 1.72242 20.2719 1.72428C20.2367 1.72613 20.2089 1.69831 20.207 1.6631C20.207 1.66125 20.207 1.65939 20.207 1.65939L20.2256 1.10524C20.2256 1.08115 20.2478 1.06076 20.2719 1.06262C20.2941 1.06262 20.3127 1.08115 20.3145 1.10524Z" fill="#FB3963"/>
<path d="M20.3497 2.21256L20.3682 2.76676C20.3701 2.82236 20.3275 2.8668 20.2719 2.86866C20.2163 2.87051 20.1718 2.82788 20.1699 2.77228C20.1699 2.77043 20.1699 2.76861 20.1699 2.7649L20.1885 2.21075C20.1903 2.16627 20.2274 2.13103 20.2719 2.13288C20.3145 2.13474 20.3497 2.16994 20.3497 2.21256Z" fill="#FB3963"/>
<path d="M20.3816 3.3183L20.3945 3.87245C20.3964 3.94288 20.3408 4.00032 20.2704 4.00218C20.1999 4.00403 20.1425 3.94844 20.1406 3.87802C20.1406 3.87616 20.1406 3.8743 20.1406 3.87245L20.1536 3.3183C20.1555 3.25529 20.2073 3.20523 20.2704 3.20708C20.3315 3.20893 20.3797 3.25899 20.3816 3.3183Z" fill="#FB3963"/>
<path d="M20.4083 4.4243L20.4175 4.97845C20.4194 5.06185 20.3527 5.13039 20.2711 5.13039C20.1877 5.13224 20.1191 5.06556 20.1191 4.98401C20.1191 4.98216 20.1191 4.9803 20.1191 4.97845L20.1284 4.4243C20.1303 4.34646 20.1933 4.2853 20.2711 4.28715C20.3471 4.289 20.4064 4.35016 20.4083 4.4243Z" fill="#FB3963"/>
<path d="M20.4295 5.53255L20.4388 6.0867C20.4406 6.17937 20.3665 6.2572 20.272 6.25905C20.1793 6.26091 20.1015 6.18679 20.0996 6.09227C20.0996 6.09042 20.0996 6.08856 20.0996 6.0867L20.1089 5.53255C20.1107 5.44359 20.183 5.375 20.272 5.375C20.3591 5.37685 20.4277 5.4473 20.4295 5.53255Z" fill="#FB3963"/>
<path d="M20.4434 6.63895L20.449 7.1931C20.4509 7.29503 20.3693 7.37658 20.2674 7.37844C20.1654 7.38029 20.0839 7.29874 20.082 7.19681C20.082 7.19496 20.082 7.1931 20.082 7.1931L20.0876 6.63895C20.0895 6.54072 20.1691 6.46289 20.2674 6.46289C20.3656 6.46474 20.4434 6.54258 20.4434 6.63895Z" fill="#FB3963"/>
<path d="M20.4579 7.74383L20.4634 8.29798C20.4653 8.40548 20.3782 8.49259 20.2707 8.49445C20.1632 8.4963 20.0761 8.40919 20.0742 8.30169C20.0742 8.29984 20.0742 8.29798 20.0742 8.29798L20.0798 7.74383C20.0816 7.64004 20.1669 7.55664 20.2707 7.55664C20.3726 7.55849 20.456 7.6419 20.4579 7.74383Z" fill="#FB3963"/>
<path d="M20.4667 8.85066L20.4686 9.40482C20.4686 9.51602 20.3796 9.60685 20.2684 9.60685C20.1572 9.60685 20.0664 9.51787 20.0664 9.40667V9.40482L20.0683 8.85066C20.0683 8.74132 20.1591 8.65234 20.2684 8.65234C20.3778 8.65234 20.4667 8.74132 20.4667 8.85066Z" fill="#FB3963"/>
<path d="M20.4722 9.95787L20.474 10.512C20.474 10.6251 20.3832 10.7178 20.2702 10.7178C20.1571 10.7178 20.0645 10.6269 20.0645 10.5139V10.512L20.0663 9.95787C20.0663 9.84482 20.1571 9.75403 20.2702 9.75589C20.3814 9.75589 20.4722 9.84667 20.4722 9.95787Z" fill="#FB3963"/>
<path d="M20.4757 11.065V11.6191C20.4757 11.734 20.383 11.8267 20.2681 11.8267C20.1532 11.8267 20.0605 11.734 20.0605 11.6191V11.065C20.0605 10.9501 20.1532 10.8574 20.2681 10.8574C20.383 10.8574 20.4757 10.9501 20.4757 11.065Z" fill="#FB3963"/>
<path d="M20.474 12.1726L20.4722 12.7267C20.4722 12.8398 20.3795 12.9306 20.2683 12.9287C20.1571 12.9287 20.0663 12.8379 20.0663 12.7267L20.0645 12.1726C20.0645 12.0595 20.1553 11.9668 20.2683 11.9668C20.3814 11.965 20.4722 12.0577 20.474 12.1726Z" fill="#FB3963"/>
<path d="M20.4686 13.2782L20.4667 13.8324C20.4667 13.9417 20.3759 14.0325 20.2666 14.0307C20.1572 14.0307 20.0683 13.9417 20.0683 13.8324L20.0664 13.2782C20.0664 13.167 20.1554 13.0762 20.2666 13.0762C20.3778 13.0743 20.4686 13.1652 20.4686 13.2782Z" fill="#FB3963"/>
<path d="M20.4684 14.3788L20.5091 14.9107L20.511 14.9293C20.5184 15.0331 20.4406 15.1239 20.3368 15.1313C20.2348 15.1387 20.144 15.0627 20.1348 14.9608L20.0792 14.39C20.068 14.2825 20.1477 14.1879 20.2534 14.1768C20.359 14.1657 20.4554 14.2454 20.4665 14.3511C20.4665 14.3529 20.4665 14.3529 20.4665 14.3547L20.4684 14.3788Z" fill="#FB3963"/>
<path d="M20.6003 15.4367L20.7486 15.9501L20.7542 15.9686C20.782 16.0632 20.7264 16.1614 20.6337 16.1873C20.541 16.2133 20.4447 16.1614 20.415 16.0705L20.2445 15.5238C20.2148 15.4274 20.2686 15.3255 20.365 15.294C20.4613 15.2625 20.5633 15.3181 20.5948 15.4145C20.5948 15.4163 20.5948 15.4163 20.5948 15.4163L20.6003 15.4367Z" fill="#FB3963"/>
<path d="M20.9487 16.4452L21.1971 16.9215L21.2045 16.9364C21.2453 17.0142 21.2156 17.1106 21.1359 17.1514C21.0599 17.1903 20.9654 17.1625 20.9228 17.0883L20.6411 16.5916C20.5947 16.5101 20.6244 16.4063 20.7059 16.3618C20.7875 16.3155 20.8913 16.3452 20.9358 16.4249C20.9358 16.4267 20.9376 16.4286 20.9376 16.4286L20.9487 16.4452Z" fill="#FB3963"/>
<path d="M21.4936 17.3712L21.8346 17.7882L21.8439 17.7993C21.8921 17.8586 21.8847 17.9476 21.8235 17.9958C21.7642 18.044 21.6789 18.0366 21.6308 17.9791L21.2564 17.5528C21.2008 17.4898 21.2082 17.3953 21.2694 17.3416C21.3305 17.2878 21.4269 17.2934 21.4806 17.3546C21.4825 17.3564 21.4825 17.3564 21.4844 17.3583L21.4936 17.3712Z" fill="#FB3963"/>
<path d="M22.2121 18.1711L22.6291 18.514L22.6384 18.5213C22.6865 18.5603 22.694 18.6326 22.6532 18.6808C22.6143 18.7271 22.5457 18.7364 22.4975 18.6993L22.0434 18.362C21.9878 18.3194 21.9749 18.2397 22.0175 18.1841C22.0601 18.1285 22.1398 18.1155 22.1954 18.1581C22.1973 18.16 22.1991 18.16 22.1991 18.1618L22.2121 18.1711Z" fill="#FB3963"/>
<path d="M23.0809 18.8148L23.5609 19.0724L23.5684 19.0761C23.6073 19.0965 23.6221 19.1465 23.6017 19.1854C23.5813 19.2225 23.535 19.2373 23.4979 19.2206L22.9864 18.9871C22.9364 18.9649 22.9141 18.9056 22.9364 18.8555C22.9586 18.8055 23.0179 18.7833 23.0679 18.8055C23.0698 18.8055 23.0716 18.8074 23.0735 18.8074L23.0809 18.8148Z" fill="#FB3963"/>
<path d="M24.0632 19.2806L24.5896 19.4345L24.5933 19.4363C24.6174 19.4437 24.6304 19.4678 24.623 19.4919C24.6155 19.5142 24.5933 19.5271 24.5711 19.5234L24.0262 19.4011C23.9928 19.3937 23.9706 19.3603 23.978 19.327C23.9854 19.2936 24.0188 19.2714 24.0521 19.2788C24.054 19.2788 24.054 19.2788 24.0558 19.2806H24.0632Z" fill="#FB3963"/>
<path d="M25.1312 19.5391L25.6631 19.5891L25.1257 19.5873C25.1127 19.5873 25.1016 19.5761 25.1016 19.5631C25.1016 19.5502 25.1127 19.5391 25.1257 19.5391H25.1275H25.1312Z" fill="#FB3963"/>
</g>
<path opacity="0.26" d="M56.733 37.3965C56.3141 33.08 53.9622 29.3307 50.5539 27.0214V22.0637C50.5539 15.2712 45.2663 9.71484 38.7944 9.71484H38.7277C32.2558 9.71484 26.9682 15.273 26.9682 22.0637V27.7442C24.0899 30.072 22.1421 33.5044 21.764 37.3946C21.7195 37.8505 21.6973 38.3139 21.6973 38.7828V39.7373C21.6973 47.577 28.0524 53.9321 35.8921 53.9321H42.6049C44.9531 53.9321 47.1679 53.3631 49.1176 52.353C49.1528 52.3345 49.188 52.3178 49.2214 52.2992C53.7287 49.9214 56.7997 45.188 56.7997 39.7373V38.7828C56.8016 38.3157 56.7775 37.8524 56.733 37.3965ZM47.166 25.3386C45.7352 24.853 44.2007 24.5898 42.6068 24.5898H35.8939C33.9312 24.5898 32.0594 24.9883 30.3598 25.7092V23.3573C30.3598 22.9644 30.3728 22.5752 30.3987 22.1934C30.5637 19.823 31.2383 17.6638 32.4374 16.0255C33.8312 14.1239 35.931 12.9267 38.7629 12.9267C43.8578 12.9267 46.5211 16.7224 47.0622 21.4799C47.1327 22.0915 47.166 22.7198 47.166 23.3573V25.3386Z" fill="#E43131"/>
<path opacity="0.19" d="M47.7453 52.6952C46.7556 53.6757 45.6213 54.5097 44.3796 55.1658C44.3444 55.1843 44.311 55.2028 44.2758 55.2195C42.3261 56.2296 40.1113 56.7985 37.7631 56.7985H31.0503C23.2106 56.7985 16.8555 50.4434 16.8555 42.6038V41.6493C16.8555 41.1804 16.8777 40.717 16.9222 40.2611C17.3003 36.3709 19.2481 32.9385 22.1264 30.6107V24.9302C22.1264 20.5748 24.3004 16.7291 27.566 14.5273C25.3623 16.7755 23.989 19.915 23.989 23.3771V29.0576C21.1108 31.3854 19.1629 34.8178 18.7848 38.708C18.7403 39.1639 18.7181 39.6291 18.7181 40.0962V41.0506C18.7181 48.8903 25.0732 55.2455 32.9129 55.2455H39.6257C41.9721 55.2455 44.1868 54.6765 46.1384 53.6664C46.1736 53.6479 46.207 53.6312 46.2422 53.6126C46.763 53.3383 47.2652 53.0326 47.7453 52.6952Z" fill="url(#paint1_linear_1837_55398)"/>
<g filter="url(#filter0_d_1837_55398)">
<path d="M47.5721 23.3762V29.3144H44.1823V24.6699C44.1823 24.0323 44.1471 23.404 44.0785 22.7924C43.5373 18.0349 40.8741 14.2392 35.7792 14.2392C33.2142 14.2392 31.2496 15.2196 29.867 16.8172C29.7224 16.984 29.5853 17.1582 29.4537 17.3362C28.2546 18.9727 27.58 21.1337 27.415 23.5041C27.3891 23.8878 27.3743 24.277 27.3743 24.6699V29.3144H23.9863V23.3762C23.9863 19.9142 25.3596 16.7746 27.5633 14.5265C29.6835 12.3636 32.5729 11.0273 35.7458 11.0273H35.8125C42.2844 11.0273 47.5721 16.5856 47.5721 23.3762Z" fill="url(#paint2_linear_1837_55398)"/>
</g>
<path d="M47.5738 24.3645V28.0972C46.5285 27.4429 45.3905 26.9203 44.1858 26.5552V24.6685C44.1858 24.0309 44.1506 23.4026 44.082 22.791C45.3238 23.158 46.497 23.6917 47.5738 24.3645Z" fill="#FEA2A2"/>
<path opacity="0.82" d="M44.1819 24.6685C44.1819 24.0309 44.1467 23.4026 44.0781 22.791C44.1059 22.7984 44.1337 22.8077 44.1597 22.8151C44.1745 23.1024 44.1819 23.3897 44.1819 23.6806V24.6685Z" fill="url(#paint3_linear_1837_55398)"/>
<path opacity="0.2" d="M47.5735 27.1084V28.0944C46.5282 27.4402 45.3902 26.9175 44.1855 26.5524V25.5664C45.3902 25.9334 46.5263 26.4542 47.5735 27.1084Z" fill="#E43131"/>
<g filter="url(#filter1_d_1837_55398)">
<path d="M53.8212 40.0952V41.0497C53.8212 45.8702 51.4193 50.1293 47.7459 52.6943C47.2659 53.0298 46.7636 53.3374 46.2429 53.6117C46.2076 53.6302 46.1743 53.6488 46.1391 53.6655C44.1894 54.6737 41.9746 55.2445 39.6264 55.2445H32.9136C25.0739 55.2445 18.7188 48.8894 18.7188 41.0497V40.0952C18.7188 39.6263 18.741 39.163 18.7855 38.7071C19.1636 34.8169 21.1114 31.3845 23.9897 29.0567C24.0953 28.9695 24.2028 28.8862 24.3122 28.8028C24.6977 28.5081 25.0998 28.2319 25.5168 27.978C25.6132 27.9187 25.7096 27.8612 25.8078 27.8038C26.3138 27.511 26.8383 27.2478 27.3794 27.0198C29.0808 26.2989 30.9509 25.9004 32.9136 25.9004H39.6264C40.5475 25.9004 41.4501 25.9875 42.323 26.1562C42.9606 26.2785 43.5833 26.4434 44.1856 26.6492C44.7083 26.8271 45.2179 27.0328 45.7109 27.2682C46.3615 27.5758 46.9842 27.9335 47.5736 28.3339C50.9819 30.6413 53.3338 34.3925 53.7526 38.7071C53.799 39.163 53.8212 39.6263 53.8212 40.0952Z" fill="url(#paint4_linear_1837_55398)"/>
</g>
<g filter="url(#filter2_d_1837_55398)">
<path d="M53.8181 40.0952V41.0497C53.8181 46.5004 50.7471 51.2338 46.2397 53.6117C46.7494 53.1391 47.2665 52.5942 47.7095 51.9659C51.5236 46.5597 49.6369 35.4693 43.506 30.6895C37.3677 25.9041 30.3788 27.472 25.8047 27.8038C27.8953 26.5935 30.3213 25.9004 32.9105 25.9004H39.6233C46.9959 25.9004 53.0545 31.5198 53.7514 38.7071C53.7959 39.163 53.8181 39.6263 53.8181 40.0952Z" fill="url(#paint5_linear_1837_55398)"/>
</g>
<path d="M34.4074 55.2445H32.9136C25.0739 55.2445 18.7188 48.8893 18.7188 41.0496V40.0952C18.7188 39.6263 18.741 39.163 18.7855 38.707C19.1765 34.6723 21.2578 31.1324 24.3122 28.8027C21.9695 34.2683 21.4599 43.1087 24.4567 48.6502C27.3832 54.0639 32.2389 54.8905 34.4074 55.2445Z" fill="url(#paint6_linear_1837_55398)"/>
<g filter="url(#filter3_d_1837_55398)">
<path d="M37.9046 55.2445H32.9136C25.0739 55.2445 18.7188 48.8894 18.7188 41.0497V40.0952C18.7188 39.6263 18.741 39.163 18.7855 38.7071C19.1765 34.6723 21.2578 31.1324 24.3122 28.8028C24.7866 28.4395 25.287 28.1059 25.8078 27.8038C27.8984 26.5935 30.3244 25.9004 32.9136 25.9004H36.8464C35.1672 26.8419 33.5863 28.067 33.3843 29.9185C33.0544 32.9543 36.8501 33.829 37.6748 37.9824C38.7701 43.5072 32.9302 46.3744 33.8995 50.8521C34.3425 52.8963 35.9827 54.2418 37.9046 55.2445Z" fill="url(#paint7_linear_1837_55398)"/>
</g>
<path d="M39.4992 46.0137C39.6363 46.5697 39.2156 47.1054 38.6448 47.1054H33.8038C33.233 47.1054 32.8123 46.5697 32.9494 46.0137L34.1541 41.1153C34.2319 40.7965 34.1282 40.463 33.8835 40.2461C33.1292 39.5808 32.6584 38.5985 32.6825 37.5069C32.7233 35.672 34.1745 34.1745 35.9834 34.0503C36.0556 34.0448 36.1279 34.0429 36.2002 34.0411C38.1685 34.0281 39.7697 35.6201 39.7697 37.5847C39.7697 38.6448 39.3027 39.5974 38.5651 40.248C38.3204 40.463 38.2203 40.7984 38.2982 41.1135L39.4992 46.0137Z" fill="#FEF7F7"/>
<path d="M34.1531 41.1153L32.9484 46.0137C32.8113 46.5697 33.232 47.1054 33.8028 47.1054H33.3172C32.7464 47.1054 32.3257 46.5697 32.4628 46.0137L33.6675 41.1153C33.7454 40.7966 33.6416 40.463 33.3951 40.2461C32.6408 39.5808 32.1719 38.5985 32.1941 37.5069C32.2349 35.5998 33.8028 34.0559 35.7118 34.043C35.8026 34.043 35.8915 34.0448 35.9805 34.0522C34.1716 34.1764 32.7205 35.6739 32.6797 37.5087C32.6556 38.6003 33.1245 39.5826 33.8807 40.248C34.1272 40.463 34.2309 40.7984 34.1531 41.1153Z" fill="#E43131"/>
<path d="M23.9863 25.4681C25.0094 24.571 26.164 23.8186 27.415 23.2422C27.3891 23.6258 27.3743 24.0131 27.3743 24.4061V26.9915C26.2066 27.5327 25.1261 28.2277 24.1568 29.0506H23.9863V25.4681Z" fill="#FEA2A2"/>
<path opacity="0.36" d="M27.3761 25.6426V26.9084C26.2233 27.4885 25.1521 28.1928 24.1754 29.0027H23.9863V27.8333C25.0149 26.9807 26.151 26.2412 27.3761 25.6426Z" fill="#E43131"/>
<path opacity="0.18" d="M60.5774 50.234C60.444 51.6018 60.1067 54.0501 59.2541 56.7319C58.9483 57.6957 58.5758 58.6909 58.1217 59.6769C56.6984 62.772 54.4799 65.7762 51.0234 67.4628C50.9511 67.4999 50.8807 67.5351 50.8047 67.5703C50.7992 67.5722 50.7917 67.5777 50.7825 67.5814C50.7769 67.5796 50.7695 67.574 50.7602 67.5703C50.2765 67.3442 49.8169 67.094 49.3795 66.8215C49.0663 66.6269 48.7642 66.4193 48.4751 66.2025C47.8968 65.7707 47.363 65.2981 46.8701 64.794C46.6143 64.5327 46.3697 64.2621 46.1343 63.9859C45.5245 63.2649 44.9833 62.494 44.507 61.6989C43.6638 60.2941 43.0188 58.8095 42.524 57.3713C41.803 55.2752 41.4008 53.2791 41.1803 51.7723C41.0932 51.1756 41.0339 50.6566 40.9931 50.2378C40.9282 49.5761 41.336 48.9664 41.968 48.7699L43.7805 48.2028L49.8373 46.3087L50.7621 46.0214L50.7732 46.0195L59.5989 48.7718C60.2309 48.9645 60.6423 49.5743 60.5774 50.234Z" fill="#FEF7F7"/>
<g filter="url(#filter4_d_1837_55398)">
<path d="M63.8021 51.775C63.6686 53.1427 63.3313 55.591 62.4788 58.2728C62.173 59.2366 61.8004 60.2318 61.3464 61.2178C59.923 64.3129 57.7045 67.3172 54.248 69.0037C54.1758 69.0408 54.1053 69.076 54.0293 69.1094C54.0238 69.1112 54.0164 69.1167 54.0071 69.1204C54.0015 69.1186 53.9941 69.1131 53.9849 69.1094C53.5011 68.8833 53.0415 68.633 52.6041 68.3606C52.2909 68.166 51.9888 67.9584 51.6997 67.7416C51.1214 67.3097 50.5877 66.8372 50.0947 66.333C49.8389 66.0717 49.5943 65.8011 49.3589 65.525C48.7491 64.804 48.208 64.033 47.7317 63.2379C46.8884 61.8331 46.2434 60.3486 45.7486 58.9104C45.0276 56.8142 44.6254 54.8182 44.4049 53.3114C44.3178 52.7146 44.2585 52.1957 44.2177 51.7768C44.1528 51.1152 44.5606 50.5054 45.1926 50.3089L47.0051 49.7418L53.0619 47.8477L53.9867 47.5604L53.9978 47.5586L62.8235 50.3108C63.4555 50.5035 63.8651 51.1133 63.8021 51.775Z" fill="url(#paint8_linear_1837_55398)"/>
</g>
<g opacity="0.43">
<path opacity="0.2" d="M61.3896 54.328C62.1818 54.328 62.8241 53.6857 62.8241 52.8935C62.8241 52.1012 62.1818 51.459 61.3896 51.459C60.5973 51.459 59.9551 52.1012 59.9551 52.8935C59.9551 53.6857 60.5973 54.328 61.3896 54.328Z" fill="white"/>
<path opacity="0.2" d="M48.8321 61.2182C48.8321 62.0652 48.3947 62.8084 47.7331 63.2384C46.8898 61.8335 46.2448 60.349 45.75 58.9108C45.965 58.8478 46.1911 58.8145 46.4265 58.8145C47.7553 58.8126 48.8321 59.8894 48.8321 61.2182Z" fill="white"/>
<path opacity="0.2" d="M47.9077 51.5212C47.9077 52.7407 46.9199 53.7286 45.7004 53.7286C45.2167 53.7286 44.7681 53.5729 44.4049 53.3078C44.3178 52.7111 44.2585 52.1921 44.2177 51.7733C44.1528 51.1116 44.5606 50.5019 45.1926 50.3054L47.0051 49.7383C47.5519 50.1423 47.9077 50.791 47.9077 51.5212Z" fill="white"/>
<path opacity="0.2" d="M56.3203 65.3749C57.1821 65.3749 57.8808 64.6763 57.8808 63.8144C57.8808 62.9526 57.1821 62.2539 56.3203 62.2539C55.4584 62.2539 54.7598 62.9526 54.7598 63.8144C54.7598 64.6763 55.4584 65.3749 56.3203 65.3749Z" fill="white"/>
<path opacity="0.2" d="M47.9093 57.3166C48.419 57.3166 48.8323 56.9034 48.8323 56.3937C48.8323 55.8839 48.419 55.4707 47.9093 55.4707C47.3996 55.4707 46.9863 55.8839 46.9863 56.3937C46.9863 56.9034 47.3996 57.3166 47.9093 57.3166Z" fill="white"/>
<path opacity="0.2" d="M57.5636 53.3674C58.0733 53.3674 58.4866 52.9542 58.4866 52.4444C58.4866 51.9347 58.0733 51.5215 57.5636 51.5215C57.0538 51.5215 56.6406 51.9347 56.6406 52.4444C56.6406 52.9542 57.0538 53.3674 57.5636 53.3674Z" fill="white"/>
<path opacity="0.2" d="M62.4796 58.2699C62.1738 59.2336 61.8013 60.2288 61.3472 61.2148C60.7096 61.0109 60.25 60.4141 60.25 59.7099C60.25 58.8369 60.9561 58.1309 61.8291 58.1309C62.0607 58.1309 62.2813 58.1809 62.4796 58.2699Z" fill="white"/>
<path opacity="0.2" d="M52.5472 48.1953C51.3277 48.1953 50.3398 49.1831 50.3398 50.4026C50.3398 51.6221 51.3277 52.61 52.5472 52.61C53.7667 52.61 54.7545 51.6221 54.7545 50.4026C54.7545 49.1831 53.7667 48.1953 52.5472 48.1953ZM52.5472 51.6314C51.8689 51.6314 51.3203 51.081 51.3203 50.4045C51.3203 49.7262 51.8689 49.1757 52.5472 49.1757C53.2255 49.1757 53.776 49.7262 53.776 50.4045C53.776 51.081 53.2255 51.6314 52.5472 51.6314Z" fill="white"/>
<path opacity="0.2" d="M51.2999 64.3711C50.4641 64.3711 49.7357 64.8363 49.3613 65.522C49.5949 65.8 49.8414 66.0688 50.0971 66.3301C50.212 65.7704 50.7069 65.3515 51.2999 65.3515C51.9783 65.3515 52.5269 65.9019 52.5269 66.5803C52.5269 67.1177 52.1821 67.5737 51.7021 67.7405C51.9912 67.9573 52.2933 68.1649 52.6065 68.3595C53.1514 67.9573 53.5054 67.3105 53.5054 66.5803C53.5073 65.3608 52.5195 64.3711 51.2999 64.3711Z" fill="white"/>
</g>
<path d="M59.2116 57.8157C59.2116 57.9269 59.2079 58.0344 59.1986 58.1437C59.0429 60.7088 57.0246 62.7679 54.4818 62.994C54.3261 63.0107 54.1704 63.0162 54.0111 63.0162C53.9629 63.0162 53.9165 63.0162 53.8683 63.0125C53.0325 62.9903 52.2448 62.7716 51.5535 62.4027C50.7973 61.9932 50.1524 61.4056 49.6779 60.6921C49.2832 60.0972 49.007 59.4207 48.8865 58.6923C48.8365 58.4162 48.8105 58.1327 48.8105 57.8435V57.8157C48.8105 54.943 51.1365 52.6152 54.0111 52.6152C54.4744 52.6152 54.9211 52.6745 55.3492 52.7894H55.3529C56.0609 52.9766 56.7132 53.3139 57.2692 53.7624C57.9346 54.2962 58.4609 54.9893 58.7983 55.7844C59.0651 56.4072 59.2116 57.0947 59.2116 57.8157Z" fill="white"/>
<path d="M56.6088 56.4629L53.4878 59.4987C53.3136 59.6673 53.03 59.6414 52.891 59.443L51.5195 57.4841" stroke="url(#paint9_linear_1837_55398)" stroke-width="1.36507" stroke-miterlimit="10" stroke-linecap="square" stroke-linejoin="round"/>
<path opacity="0.21" d="M56.6126 54.5812L50.5558 60.1098C50.2408 59.6353 50.0202 59.096 49.9238 58.514L55.0799 53.8047H55.0817C55.647 53.9548 56.1678 54.2235 56.6126 54.5812Z" fill="url(#paint10_linear_1837_55398)"/>
<path opacity="0.21" d="M58.1594 57.8151C58.1594 57.9041 58.1576 57.9894 58.1502 58.0765L53.8967 61.963C53.2295 61.9444 52.6012 61.7702 52.0508 61.4755L57.8314 56.1953C58.0427 56.692 58.1594 57.2387 58.1594 57.8151Z" fill="url(#paint11_linear_1837_55398)"/>
<path d="M26.9055 20.7778H8.74631C5.79578 20.7778 3.38086 18.3629 3.38086 15.4124C3.38086 12.4618 5.79578 10.0469 8.74631 10.0469H26.9055C29.856 10.0469 32.2709 12.4618 32.2709 15.4124C32.2709 18.3629 29.8578 20.7778 26.9055 20.7778Z" fill="#E43131"/>
<path d="M29.9912 23.8002H13.3981C10.7015 23.8002 8.49414 21.5928 8.49414 18.8961C8.49414 16.1995 10.7015 13.9922 13.3981 13.9922H29.9912C32.6878 13.9922 34.8951 16.1995 34.8951 18.8961C34.8951 21.5946 32.6878 23.8002 29.9912 23.8002Z" fill="url(#paint12_linear_1837_55398)"/>
<path d="M14.8613 16.6953V21.1026" stroke="white" stroke-width="0.869889" stroke-miterlimit="10" stroke-linecap="round" stroke-linejoin="round"/>
<path d="M17.0635 18.8984H12.6562" stroke="white" stroke-width="0.869889" stroke-miterlimit="10" stroke-linecap="round" stroke-linejoin="round"/>
<path d="M16.4181 20.4553L13.3008 17.3398" stroke="white" stroke-width="0.869889" stroke-miterlimit="10" stroke-linecap="round" stroke-linejoin="round"/>
<path d="M13.3008 20.4553L16.4181 17.3398" stroke="white" stroke-width="0.869889" stroke-miterlimit="10" stroke-linecap="round" stroke-linejoin="round"/>
<path d="M22.2031 16.6953V21.1026" stroke="white" stroke-width="0.869889" stroke-miterlimit="10" stroke-linecap="round" stroke-linejoin="round"/>
<path d="M24.4053 18.8984H19.998" stroke="white" stroke-width="0.869889" stroke-miterlimit="10" stroke-linecap="round" stroke-linejoin="round"/>
<path d="M23.762 20.4553L20.6465 17.3398" stroke="white" stroke-width="0.869889" stroke-miterlimit="10" stroke-linecap="round" stroke-linejoin="round"/>
<path d="M20.6465 20.4553L23.762 17.3398" stroke="white" stroke-width="0.869889" stroke-miterlimit="10" stroke-linecap="round" stroke-linejoin="round"/>
<path d="M29.5488 16.6953V21.1026" stroke="white" stroke-width="0.869889" stroke-miterlimit="10" stroke-linecap="round" stroke-linejoin="round"/>
<path d="M31.751 18.8984H27.3438" stroke="white" stroke-width="0.869889" stroke-miterlimit="10" stroke-linecap="round" stroke-linejoin="round"/>
<path d="M31.1076 20.4553L27.9902 17.3398" stroke="white" stroke-width="0.869889" stroke-miterlimit="10" stroke-linecap="round" stroke-linejoin="round"/>
<path d="M27.9902 20.4553L31.1076 17.3398" stroke="white" stroke-width="0.869889" stroke-miterlimit="10" stroke-linecap="round" stroke-linejoin="round"/>
<path d="M55.4062 29.3135L55.9604 29.2838C55.9771 29.2838 55.99 29.2949 55.9919 29.3116C55.9919 29.3283 55.9808 29.3412 55.9641 29.3431C55.9622 29.3431 55.9623 29.3431 55.9604 29.3431L55.4062 29.3135Z" fill="#E43131"/>
<path d="M56.959 29.243L57.5132 29.2208C57.5651 29.2189 57.6077 29.2578 57.6095 29.3097C57.6114 29.3616 57.5725 29.4042 57.5206 29.4061C57.5187 29.4061 57.515 29.4061 57.5132 29.4061L56.959 29.3838C56.9201 29.382 56.8904 29.3486 56.8923 29.3097C56.8923 29.2745 56.9219 29.2448 56.959 29.243Z" fill="#E43131"/>
<path d="M58.5311 29.2726L59.0889 29.3931C59.1649 29.4098 59.215 29.4858 59.1983 29.5618C59.1816 29.6377 59.1056 29.6878 59.0296 29.6711C59.0278 29.6711 59.024 29.6693 59.0222 29.6693L59.0055 29.6656L58.4866 29.521L58.4718 29.5173C58.405 29.4987 58.3661 29.4302 58.3846 29.3616C58.4013 29.2968 58.4662 29.2578 58.5311 29.2726Z" fill="#E43131"/>
<path d="M60.0436 29.7748L60.5347 30.0713C60.6181 30.1213 60.6459 30.2307 60.594 30.3141C60.5422 30.3975 60.4346 30.4253 60.3512 30.3734C60.3494 30.3715 60.3475 30.3715 60.3457 30.3697L60.329 30.3585L59.8823 30.0638L59.8657 30.0528C59.7897 30.0027 59.7693 29.9008 59.8193 29.8248C59.8694 29.7507 59.9676 29.7303 60.0436 29.7748Z" fill="#E43131"/>
<path d="M61.3214 30.7421L61.6939 31.1814C61.7662 31.2648 61.7551 31.3927 61.6698 31.4631C61.5846 31.5335 61.4585 31.5243 61.3881 31.439C61.3881 31.4372 61.3863 31.4371 61.3863 31.4353L61.3714 31.4167L61.0378 31.0035L61.0249 30.9868C60.9582 30.9034 60.9711 30.7829 61.0545 30.7162C61.1342 30.6513 61.2547 30.6625 61.3214 30.7421Z" fill="#E43131"/>
<path d="M62.2318 32.0695L62.445 32.607C62.4876 32.7164 62.4338 32.8424 62.3245 32.885C62.2152 32.9277 62.0891 32.8739 62.0465 32.7645V32.7627L62.0372 32.7405L61.8463 32.2456L61.8371 32.2234C61.7944 32.114 61.85 31.9917 61.9594 31.9491C62.0669 31.9083 62.1892 31.962 62.2318 32.0695Z" fill="#E43131"/>
<path d="M62.6676 33.624C62.6787 33.8168 62.6917 34.0095 62.701 34.2023C62.7065 34.3246 62.612 34.4284 62.4916 34.4339C62.3692 34.4395 62.2654 34.345 62.2599 34.2245L62.258 34.2041L62.2321 33.674L62.2302 33.65C62.2247 33.5295 62.3173 33.4276 62.4378 33.422C62.5601 33.4146 62.6602 33.5054 62.6676 33.624Z" fill="#E43131"/>
<path d="M62.6992 35.202L62.6973 35.7561C62.6973 35.8747 62.5991 35.9711 62.4805 35.9711C62.3618 35.9711 62.2655 35.8747 62.2655 35.7561L62.2636 35.202C62.2636 35.0815 62.36 34.9832 62.4805 34.9832C62.6009 34.9832 62.6973 35.0796 62.6992 35.202Z" fill="#E43131"/>
<path d="M62.6921 36.7526L62.6847 37.3067C62.6828 37.4198 62.5901 37.5106 62.4771 37.5087C62.3659 37.5069 62.2769 37.4179 62.2751 37.3067L62.2677 36.7526C62.2658 36.6358 62.3603 36.5394 62.4752 36.5394C62.592 36.5376 62.6884 36.6321 62.6884 36.747C62.6921 36.7488 62.6921 36.7526 62.6921 36.7526Z" fill="#E43131"/>
<path d="M62.6709 38.3058L62.6616 38.8599C62.6597 38.9619 62.5763 39.0416 62.4763 39.0397C62.378 39.0378 62.2983 38.9582 62.2965 38.8599L62.2872 38.3058C62.2854 38.2001 62.3706 38.113 62.4763 38.1112C62.5819 38.1093 62.669 38.1946 62.6709 38.3002C62.6709 38.3021 62.6709 38.3039 62.6709 38.3058Z" fill="#E43131"/>
<path d="M62.6412 39.8589L62.6301 40.4131C62.6282 40.4965 62.5596 40.5614 62.4762 40.5614C62.3947 40.5595 62.3298 40.4946 62.328 40.4131L62.3169 39.8589C62.315 39.77 62.3854 39.6959 62.4762 39.6922C62.5652 39.6903 62.6393 39.7607 62.6412 39.8515C62.6412 39.8534 62.6412 39.8571 62.6412 39.8589Z" fill="#E43131"/>
<path d="M62.603 41.4116L62.5844 41.9658C62.5826 42.0232 62.5344 42.0677 62.4769 42.0658C62.4213 42.064 62.3787 42.0195 62.3768 41.9658L62.3583 41.4116C62.3564 41.3449 62.4083 41.2874 62.4769 41.2856C62.5455 41.2837 62.6011 41.3356 62.603 41.4042C62.603 41.4061 62.603 41.4079 62.603 41.4116Z" fill="#E43131"/>
<path d="M62.5427 42.963L62.5205 43.5171C62.5186 43.5394 62.5001 43.5579 62.476 43.5579C62.4538 43.5579 62.4371 43.5394 62.4352 43.5171L62.413 42.963C62.4112 42.9278 62.4389 42.8981 62.4742 42.8962C62.5094 42.8944 62.539 42.9222 62.5409 42.9574C62.5428 42.9611 62.5427 42.9611 62.5427 42.963Z" fill="#E43131"/>
<path d="M43.6522 65.4341L43.098 65.4619C43.0832 65.4619 43.0702 65.4508 43.0702 65.4359C43.0702 65.4211 43.0814 65.4082 43.0962 65.4082H43.098L43.6522 65.4341Z" fill="#E43131"/>
<path d="M42.1001 65.499L41.5459 65.5194C41.4996 65.5213 41.4588 65.4842 41.4588 65.4379C41.457 65.3915 41.494 65.3508 41.5404 65.3508C41.5422 65.3508 41.5441 65.3508 41.5459 65.3508L42.1001 65.3711C42.1353 65.373 42.1631 65.4027 42.1631 65.4379C42.1612 65.4694 42.1334 65.4972 42.1001 65.499Z" fill="#E43131"/>
<path d="M40.5475 65.5513L39.9933 65.5662C39.9192 65.568 39.8599 65.5106 39.8581 65.4364C39.8562 65.3623 39.9136 65.303 39.9878 65.3011C39.9896 65.3011 39.9933 65.3011 39.9952 65.3011L40.5494 65.316C40.6142 65.3178 40.6661 65.3716 40.6643 65.4364C40.6606 65.4994 40.6087 65.5495 40.5475 65.5513Z" fill="#E43131"/>
<path d="M38.9942 65.59L38.44 65.6011C38.3473 65.6029 38.2713 65.5288 38.2695 65.438C38.2676 65.3453 38.3418 65.2694 38.4326 65.2675C38.4344 65.2675 38.4363 65.2675 38.4382 65.2675L38.9923 65.2786C39.0794 65.2804 39.148 65.3509 39.1461 65.438C39.1461 65.5214 39.0776 65.5881 38.9942 65.59Z" fill="#E43131"/>
<path d="M37.4432 65.6199L36.889 65.6274C36.7834 65.6292 36.6944 65.544 36.6944 65.4365C36.6925 65.3308 36.7778 65.2437 36.8853 65.2418C36.8871 65.2418 36.889 65.2418 36.8909 65.2418L37.445 65.2493C37.5469 65.2511 37.6303 65.3345 37.6285 65.4365C37.6248 65.5365 37.5432 65.6181 37.4432 65.6199Z" fill="#E43131"/>
<path d="M35.8889 65.6381L35.3347 65.6436C35.218 65.6454 35.1235 65.5528 35.1216 65.436C35.1198 65.3193 35.2124 65.2248 35.3292 65.2229C35.331 65.2229 35.3329 65.2229 35.3347 65.2229L35.8889 65.2284C36.0019 65.2303 36.0909 65.323 36.0909 65.4342C36.089 65.5472 36.0001 65.6362 35.8889 65.6381Z" fill="#E43131"/>
<path d="M34.3378 65.649L33.7837 65.6509C33.6632 65.6509 33.565 65.5545 33.565 65.434C33.565 65.3136 33.6614 65.2154 33.7818 65.2154H33.7837L34.3378 65.2172C34.4565 65.2172 34.5528 65.3136 34.5528 65.434C34.551 65.5527 34.4546 65.649 34.3378 65.649Z" fill="#E43131"/>
<path d="M32.785 65.6543H32.2308C32.1085 65.6543 32.0103 65.5561 32.0103 65.4338C32.0103 65.3115 32.1085 65.2133 32.2308 65.2133H32.785C32.9073 65.2133 33.0055 65.3115 33.0074 65.4338C33.0055 65.5543 32.9073 65.6543 32.785 65.6543Z" fill="#E43131"/>
<path d="M31.2172 65.6381L30.6426 65.564C30.5259 65.5491 30.4425 65.4416 30.4573 65.3249C30.4721 65.2081 30.5796 65.1266 30.6964 65.1395L30.7205 65.1433L31.2468 65.2081L31.2709 65.2118C31.3895 65.2267 31.4729 65.3342 31.46 65.4528C31.447 65.5714 31.3376 65.653 31.2172 65.6381Z" fill="#E43131"/>
<path d="M29.647 65.2635L29.1281 65.0077C29.028 64.9595 28.9872 64.8391 29.0373 64.739C29.0855 64.6408 29.2022 64.6 29.3023 64.6463L29.3227 64.6556L29.8046 64.8799L29.8268 64.8891C29.9306 64.9373 29.9751 65.0596 29.9269 65.1653C29.8787 65.2691 29.7564 65.3135 29.6526 65.2654C29.6489 65.2635 29.647 65.2635 29.647 65.2635Z" fill="#E43131"/>
<path d="M28.283 64.4074L27.8735 64.0034C27.803 63.933 27.8012 63.8199 27.8716 63.7476C27.9402 63.6791 28.0514 63.6754 28.1218 63.7421L28.1366 63.7569L28.5277 64.1202L28.5425 64.135C28.6185 64.2054 28.6241 64.3259 28.5518 64.4037C28.4795 64.4816 28.3609 64.4853 28.283 64.413C28.2849 64.4112 28.283 64.4093 28.283 64.4074Z" fill="#E43131"/>
<path d="M27.2654 63.1692L27.0059 62.6596C26.9689 62.5854 26.9985 62.4946 27.0727 62.4557C27.145 62.4186 27.2339 62.4464 27.2728 62.5168L27.2821 62.5317L27.5527 63.0172C27.5953 63.0951 27.5675 63.1933 27.4897 63.2378C27.4118 63.2823 27.3136 63.2526 27.2691 63.1748C27.2673 63.1729 27.2673 63.1711 27.2654 63.1692Z" fill="#E43131"/>
<path d="M26.7 61.6814L26.6185 61.1198C26.6092 61.0586 26.6518 61.0031 26.713 60.9956C26.7704 60.9864 26.826 61.0253 26.8372 61.0827L26.839 61.0957L26.9446 61.6258L26.9465 61.6406C26.9595 61.7092 26.915 61.7741 26.8483 61.787C26.7797 61.8 26.7148 61.7555 26.7019 61.6888C26.7019 61.6869 26.7 61.6832 26.7 61.6814Z" fill="#E43131"/>
<path d="M26.6235 60.1099L26.6438 59.5557C26.6457 59.5261 26.6698 59.502 26.6995 59.5038C26.7273 59.5057 26.7513 59.5279 26.7513 59.5557L26.7717 60.1099C26.7736 60.1506 26.7402 60.1858 26.6995 60.1877C26.6587 60.1895 26.6235 60.1562 26.6216 60.1154C26.6235 60.1136 26.6235 60.1117 26.6235 60.1099Z" fill="#E43131"/>
<path d="M26.6868 58.5565L26.6998 58.3008L26.7127 58.5565C26.7127 58.5639 26.7072 58.5695 26.7016 58.5695C26.6924 58.5714 26.6868 58.5658 26.6868 58.5565C26.6868 58.5584 26.6868 58.5584 26.6868 58.5565Z" fill="#E43131"/>
<defs>
<filter id="filter0_d_1837_55398" x="14.1058" y="7.32213" width="43.3471" height="38.0482" filterUnits="userSpaceOnUse" color-interpolation-filters="sRGB">
<feFlood flood-opacity="0" result="BackgroundImageFix"/>
<feColorMatrix in="SourceAlpha" type="matrix" values="0 0 0 0 0 0 0 0 0 0 0 0 0 0 0 0 0 0 127 0" result="hardAlpha"/>
<feOffset dy="6.17535"/>
<feGaussianBlur stdDeviation="4.94028"/>
<feColorMatrix type="matrix" values="0 0 0 0 0.894118 0 0 0 0 0.192157 0 0 0 0 0.192157 0 0 0 0.2 0"/>
<feBlend mode="normal" in2="BackgroundImageFix" result="effect1_dropShadow_1837_55398"/>
<feBlend mode="normal" in="SourceGraphic" in2="effect1_dropShadow_1837_55398" result="shape"/>
</filter>
<filter id="filter1_d_1837_55398" x="8.83819" y="22.1952" width="54.8627" height="49.1049" filterUnits="userSpaceOnUse" color-interpolation-filters="sRGB">
<feFlood flood-opacity="0" result="BackgroundImageFix"/>
<feColorMatrix in="SourceAlpha" type="matrix" values="0 0 0 0 0 0 0 0 0 0 0 0 0 0 0 0 0 0 127 0" result="hardAlpha"/>
<feOffset dy="6.17535"/>
<feGaussianBlur stdDeviation="4.94028"/>
<feColorMatrix type="matrix" values="0 0 0 0 0.894118 0 0 0 0 0.192157 0 0 0 0 0.192157 0 0 0 0.2 0"/>
<feBlend mode="normal" in2="BackgroundImageFix" result="effect1_dropShadow_1837_55398"/>
<feBlend mode="normal" in="SourceGraphic" in2="effect1_dropShadow_1837_55398" result="shape"/>
</filter>
<filter id="filter2_d_1837_55398" x="15.9241" y="22.1952" width="47.7748" height="47.4721" filterUnits="userSpaceOnUse" color-interpolation-filters="sRGB">
<feFlood flood-opacity="0" result="BackgroundImageFix"/>
<feColorMatrix in="SourceAlpha" type="matrix" values="0 0 0 0 0 0 0 0 0 0 0 0 0 0 0 0 0 0 127 0" result="hardAlpha"/>
<feOffset dy="6.17535"/>
<feGaussianBlur stdDeviation="4.94028"/>
<feColorMatrix type="matrix" values="0 0 0 0 0.894118 0 0 0 0 0.192157 0 0 0 0 0.192157 0 0 0 0.2 0"/>
<feBlend mode="normal" in2="BackgroundImageFix" result="effect1_dropShadow_1837_55398"/>
<feBlend mode="normal" in="SourceGraphic" in2="effect1_dropShadow_1837_55398" result="shape"/>
</filter>
<filter id="filter3_d_1837_55398" x="8.83819" y="22.1952" width="38.9467" height="49.1049" filterUnits="userSpaceOnUse" color-interpolation-filters="sRGB">
<feFlood flood-opacity="0" result="BackgroundImageFix"/>
<feColorMatrix in="SourceAlpha" type="matrix" values="0 0 0 0 0 0 0 0 0 0 0 0 0 0 0 0 0 0 127 0" result="hardAlpha"/>
<feOffset dy="6.17535"/>
<feGaussianBlur stdDeviation="4.94028"/>
<feColorMatrix type="matrix" values="0 0 0 0 0.894118 0 0 0 0 0.192157 0 0 0 0 0.192157 0 0 0 0.2 0"/>
<feBlend mode="normal" in2="BackgroundImageFix" result="effect1_dropShadow_1837_55398"/>
<feBlend mode="normal" in="SourceGraphic" in2="effect1_dropShadow_1837_55398" result="shape"/>
</filter>
<filter id="filter4_d_1837_55398" x="34.3304" y="43.8534" width="39.3588" height="41.3236" filterUnits="userSpaceOnUse" color-interpolation-filters="sRGB">
<feFlood flood-opacity="0" result="BackgroundImageFix"/>
<feColorMatrix in="SourceAlpha" type="matrix" values="0 0 0 0 0 0 0 0 0 0 0 0 0 0 0 0 0 0 127 0" result="hardAlpha"/>
<feOffset dy="6.17535"/>
<feGaussianBlur stdDeviation="4.94028"/>
<feColorMatrix type="matrix" values="0 0 0 0 0.894118 0 0 0 0 0.192157 0 0 0 0 0.192157 0 0 0 0.2 0"/>
<feBlend mode="normal" in2="BackgroundImageFix" result="effect1_dropShadow_1837_55398"/>
<feBlend mode="normal" in="SourceGraphic" in2="effect1_dropShadow_1837_55398" result="shape"/>
</filter>
<linearGradient id="paint0_linear_1837_55398" x1="8.10861" y1="68.3076" x2="10.4808" y2="68.3076" gradientUnits="userSpaceOnUse">
<stop stop-color="#FF66A9"/>
<stop offset="1" stop-color="#F53689"/>
</linearGradient>
<linearGradient id="paint1_linear_1837_55398" x1="32.3003" y1="56.799" x2="32.3003" y2="14.5267" gradientUnits="userSpaceOnUse">
<stop stop-color="#DEE1E2"/>
<stop offset="1" stop-color="#B4BCBE"/>
</linearGradient>
<linearGradient id="paint2_linear_1837_55398" x1="34.4895" y1="16.6925" x2="38.7738" y2="25.5748" gradientUnits="userSpaceOnUse">
<stop stop-color="#E43131"/>
<stop offset="1" stop-color="#A80E0E"/>
</linearGradient>
<linearGradient id="paint3_linear_1837_55398" x1="44.1304" y1="22.6443" x2="44.1304" y2="25.0205" gradientUnits="userSpaceOnUse">
<stop stop-color="#DEE1E2"/>
<stop offset="1" stop-color="#B4BCBE"/>
</linearGradient>
<linearGradient id="paint4_linear_1837_55398" x1="31" y1="30.5" x2="48.7086" y2="41.3647" gradientUnits="userSpaceOnUse">
<stop stop-color="#A80E0E"/>
<stop offset="1" stop-color="#E43131"/>
</linearGradient>
<linearGradient id="paint5_linear_1837_55398" x1="38.2796" y1="34.4851" x2="45.6852" y2="46.519" gradientUnits="userSpaceOnUse">
<stop stop-color="#E43131"/>
<stop offset="1" stop-color="#A80E0E"/>
</linearGradient>
<linearGradient id="paint6_linear_1837_55398" x1="20.0951" y1="34.1995" x2="37.1801" y2="65.0451" gradientUnits="userSpaceOnUse">
<stop stop-color="#DEE1E2"/>
<stop offset="0.3003" stop-color="#D7DBDC"/>
<stop offset="0.7459" stop-color="#C3C9CB"/>
<stop offset="1" stop-color="#B4BCBE"/>
</linearGradient>
<linearGradient id="paint7_linear_1837_55398" x1="27.2626" y1="34.991" x2="36.0362" y2="44.2119" gradientUnits="userSpaceOnUse">
<stop stop-color="#E43131"/>
<stop offset="1" stop-color="#A80E0E"/>
</linearGradient>
<linearGradient id="paint8_linear_1837_55398" x1="52.9381" y1="54.2383" x2="58.9552" y2="63.0293" gradientUnits="userSpaceOnUse">
<stop stop-color="#E43131"/>
<stop offset="1" stop-color="#A80E0E"/>
</linearGradient>
<linearGradient id="paint9_linear_1837_55398" x1="50.5678" y1="57.8955" x2="57.5731" y2="57.8955" gradientUnits="userSpaceOnUse">
<stop stop-color="#07BF67"/>
<stop offset="1" stop-color="#50BD88"/>
</linearGradient>
<linearGradient id="paint10_linear_1837_55398" x1="56.9817" y1="52.7887" x2="50.7715" y2="59.0749" gradientUnits="userSpaceOnUse">
<stop stop-color="#FEFEFC"/>
<stop offset="1" stop-color="#C4EAFC" stop-opacity="0.1"/>
</linearGradient>
<linearGradient id="paint11_linear_1837_55398" x1="59.2682" y1="55.5555" x2="53.3394" y2="61.5569" gradientUnits="userSpaceOnUse">
<stop stop-color="#FEFEFC"/>
<stop offset="1" stop-color="#C4EAFC" stop-opacity="0.1"/>
</linearGradient>
<linearGradient id="paint12_linear_1837_55398" x1="9.31901" y1="24.57" x2="28.849" y2="15.6188" gradientUnits="userSpaceOnUse">
<stop stop-color="#FF4E7A"/>
<stop offset="1" stop-color="#FB3963"/>
</linearGradient>
</defs>
</svg>
