<svg width="21" height="20" viewBox="0 0 21 20" fill="none" xmlns="http://www.w3.org/2000/svg">
<path d="M2.58203 6.25V11.25C2.58203 14.3927 2.58203 15.964 3.55834 16.9403C4.53465 17.9167 6.106 17.9167 9.24867 17.9167H12.1653M18.4153 11.6667V6.25" stroke="#111827" stroke-width="1.5" stroke-linecap="round" stroke-linejoin="round"/>
<path d="M3.72294 4.42949L2.58203 6.25065H18.4153L17.3718 4.51151C16.6605 3.32583 16.3048 2.73298 15.7317 2.40848C15.1585 2.08398 14.4672 2.08398 13.0844 2.08398H7.96012C6.60701 2.08398 5.93046 2.08398 5.36547 2.39673C4.80049 2.70948 4.44131 3.28283 3.72294 4.42949Z" stroke="#111827" stroke-width="1.5" stroke-linecap="round" stroke-linejoin="round"/>
<path d="M10.5 6.25065V2.08398" stroke="#111827" stroke-width="1.5" stroke-linecap="round" stroke-linejoin="round"/>
<path d="M13.8333 12.084C13.8333 12.084 11.75 13.6183 11.75 14.1673C11.75 14.7163 13.8333 16.2507 13.8333 16.2507M12.1667 14.1673H16.5417C17.5772 14.1673 18.4167 15.0068 18.4167 16.0423C18.4167 17.0778 17.5772 17.9173 16.5417 17.9173H15.9167" stroke="#111827" stroke-width="1.5" stroke-linecap="round" stroke-linejoin="round"/>
<path d="M8.83203 8.75H12.1653" stroke="#111827" stroke-width="1.5" stroke-linecap="round" stroke-linejoin="round"/>
</svg>
