<svg width="21" height="20" viewBox="0 0 21 20" fill="none" xmlns="http://www.w3.org/2000/svg">
<path d="M14.6667 17.4993C15.5871 17.4993 16.3333 16.7532 16.3333 15.8327C16.3333 14.9122 15.5871 14.166 14.6667 14.166C13.7462 14.166 13 14.9122 13 15.8327C13 16.7532 13.7462 17.4993 14.6667 17.4993Z" stroke="#111827" stroke-width="1.5"/>
<path d="M6.33268 17.4993C7.25316 17.4993 7.99935 16.7532 7.99935 15.8327C7.99935 14.9122 7.25316 14.166 6.33268 14.166C5.41221 14.166 4.66602 14.9122 4.66602 15.8327C4.66602 16.7532 5.41221 17.4993 6.33268 17.4993Z" stroke="#111827" stroke-width="1.5"/>
<path d="M2.16602 7.49935V11.6218C2.16602 13.6068 2.16602 14.5993 2.77621 15.216C3.18193 15.6261 3.75208 15.7634 4.66602 15.8095M10.8553 4.16602C11.6163 4.41593 12.213 5.01897 12.4603 5.78813C12.5827 6.1687 12.5827 6.63896 12.5827 7.57946C12.5827 8.20646 12.5827 8.52 12.6643 8.77367C12.8291 9.28642 13.2269 9.6885 13.7343 9.85508C13.9853 9.9375 14.2956 9.9375 14.916 9.9375H18.8327V11.6218C18.8327 13.6068 18.8327 14.5993 18.2225 15.216C17.8168 15.6261 17.2466 15.7634 16.3327 15.8095M7.99935 15.8327H12.9993" stroke="#111827" stroke-width="1.5" stroke-linecap="round" stroke-linejoin="round"/>
<path d="M12.584 5.83398H14.1017C15.3145 5.83398 15.9208 5.83398 16.4143 6.12874C16.9078 6.4235 17.1953 6.95742 17.7703 8.02523L18.834 10.0006" stroke="#111827" stroke-width="1.5" stroke-linecap="round" stroke-linejoin="round"/>
<path d="M6.60479 6.66667L7.84359 5.68819C8.50298 5.16736 8.83268 4.90694 8.83268 4.58333M8.83268 4.58333C8.83268 4.25973 8.50298 3.99932 7.84359 3.47848L6.60479 2.5M8.83268 4.58333H2.16602" stroke="#111827" stroke-width="1.5" stroke-linecap="round" stroke-linejoin="round"/>
</svg>
