<svg width="18" height="18" viewBox="0 0 18 18" fill="none" xmlns="http://www.w3.org/2000/svg">
<path d="M14.625 13.125C14.625 14.1605 13.7855 15 12.75 15C11.7145 15 10.875 14.1605 10.875 13.125C10.875 12.0895 11.7145 11.25 12.75 11.25C13.7855 11.25 14.625 12.0895 14.625 13.125Z" stroke="#111827" stroke-width="1.5"/>
<path d="M7.125 13.125C7.125 14.1605 6.28553 15 5.25 15C4.21447 15 3.375 14.1605 3.375 13.125C3.375 12.0895 4.21447 11.25 5.25 11.25C6.28553 11.25 7.125 12.0895 7.125 13.125Z" stroke="#111827" stroke-width="1.25"/>
<path d="M10.875 13.125H7.125M14.625 13.125H15.1974C15.3623 13.125 15.4448 13.125 15.5141 13.1164C16.0252 13.0527 16.4277 12.6502 16.4914 12.1391C16.5 12.0698 16.5 11.9873 16.5 11.8224V9.75C16.5 7.05761 14.3174 4.875 11.625 4.875M1.5 3H9C10.0606 3 10.591 3 10.9205 3.32951C11.25 3.65901 11.25 4.18934 11.25 5.25V11.625M1.5 9.5625V11.25C1.5 11.9509 1.5 12.3014 1.65072 12.5625C1.74946 12.7335 1.89148 12.8755 2.0625 12.9742C2.32356 13.125 2.67403 13.125 3.375 13.125" stroke="#111827" stroke-width="1.25" stroke-linecap="round" stroke-linejoin="round"/>
<path d="M1.5 5.25H6M1.5 7.5H4.5" stroke="#111827" stroke-width="1.25" stroke-linecap="round" stroke-linejoin="round"/>
</svg>
