<svg width="14" height="14" viewBox="0 0 14 14" fill="none" xmlns="http://www.w3.org/2000/svg">
<g clip-path="url(#clip0_2036_18897)">
<path d="M12.8327 7.0013V10.5013C12.8327 11.79 11.788 12.8346 10.4993 12.8346H3.49935C2.21068 12.8346 1.16602 11.79 1.16602 10.5013V3.5013C1.16602 2.21264 2.21068 1.16797 3.49935 1.16797H6.99935M9.14973 2.34791C9.14973 2.34791 9.14973 3.18225 9.98407 4.01659C10.8184 4.85093 11.6527 4.85093 11.6527 4.85093M5.33957 9.32855L7.09169 9.07825C7.34443 9.04214 7.57863 8.92504 7.75916 8.74451L12.4871 4.01658C12.9479 3.55579 12.9479 2.8087 12.4871 2.3479L11.6527 1.51356C11.192 1.05277 10.4449 1.05277 9.98407 1.51356L5.25614 6.24149C5.07561 6.42202 4.95851 6.65623 4.9224 6.90896L4.6721 8.66108C4.61648 9.05043 4.95022 9.38417 5.33957 9.32855Z" stroke="#334155" stroke-width="1.25" stroke-linecap="round"/>
</g>
<defs>
<clipPath id="clip0_2036_18897">
<rect width="14" height="14" fill="white"/>
</clipPath>
</defs>
</svg>
