<svg width="16" height="16" viewBox="0 0 16 16" fill="none" xmlns="http://www.w3.org/2000/svg">
<path d="M3.33333 14L3.33333 9.33333M3.33333 9.33333C4.06971 9.33333 4.66667 8.73638 4.66667 8C4.66667 7.26362 4.06971 6.66667 3.33333 6.66667M3.33333 9.33333C2.59695 9.33333 2 8.73638 2 8C2 7.26362 2.59695 6.66667 3.33333 6.66667M8 14V8M8 3.33333V2M8 3.33333C8.73638 3.33333 9.33333 3.93029 9.33333 4.66667C9.33333 5.40305 8.73638 6 8 6C7.26362 6 6.66667 5.40305 6.66667 4.66667C6.66667 3.93029 7.26362 3.33333 8 3.33333ZM3.33333 6.66667L3.33333 2M12.6667 8V2M12.6667 14V12.6667M12.6667 12.6667C13.403 12.6667 14 12.0697 14 11.3333C14 10.597 13.403 10 12.6667 10C11.9303 10 11.3333 10.597 11.3333 11.3333C11.3333 12.0697 11.9303 12.6667 12.6667 12.6667Z" stroke="#334155" stroke-width="1.25" stroke-linecap="round"/>
</svg>
