<svg width="82" height="79" viewBox="0 0 82 79" fill="none" xmlns="http://www.w3.org/2000/svg">
<g filter="url(#filter0_d_2005_10928)">
<path d="M71.5321 26.0231V56.6082C71.5321 56.7375 71.5321 56.8022 71.5321 56.9315C71.4679 58.6774 70.6331 60.2292 69.4131 61.2638C68.3214 62.2338 66.9087 62.8157 65.3676 62.8157H16.5007C15.4091 62.8157 14.4459 62.5571 13.5469 62.0398C13.1616 61.8458 12.7763 61.5871 12.4552 61.2638C11.7489 60.6819 11.171 59.9059 10.8499 59.0007C10.593 58.354 10.4004 57.7074 10.4004 56.9962V26.0231C10.4004 26.0231 12.969 23.8246 16.6291 20.7855C20.4178 17.5524 25.4265 13.4141 29.793 9.72836C32.2974 7.59453 32.0405 7.85317 35.8934 4.55542C38.8472 2.03361 43.1495 2.03361 46.1034 4.55542C46.8739 5.20204 47.6445 5.91332 48.4151 6.55994C50.0204 7.85317 51.7542 9.40506 53.6806 10.9569C57.5977 14.2547 61.9 17.8758 65.3034 20.7209C68.7709 23.6307 71.2753 25.7645 71.5321 26.0231Z" fill="#E43131"/>
</g>
<path d="M65.3029 20.7191V31.7116L54.6434 38.1131L51.4327 40.053L44.6902 44.1266L41.4795 46.0665L40.131 46.9071L38.8467 46.0665L35.8287 44.1266L29.4073 40.053L26.3892 38.1131L16.5645 31.9056V20.7837C20.3531 17.5506 25.3618 13.4123 29.7283 9.72656L53.6802 10.9551C57.5972 14.2529 61.8995 17.874 65.3029 20.7191Z" fill="#AD1111"/>
<path d="M63.1841 10.6994V31.2619L53.4236 37.1461L50.534 38.892L44.3694 42.5777L41.4798 44.3235L40.2597 45.0348L39.1039 44.3235L36.3427 42.5777L30.4992 38.892L27.738 37.1461L18.748 31.4558V10.6994C18.748 8.69488 20.3534 7.01367 22.4082 7.01367H59.5239C61.5146 7.01367 63.1841 8.69488 63.1841 10.6994Z" fill="white"/>
<path opacity="0.67" d="M10.5898 25.8906L39.9356 27.8305L71.0152 25.8906L69.8594 31.5162C69.8594 31.5162 40.642 46.9057 40.8346 46.9057C41.0273 46.9057 10.6541 28.6711 10.6541 28.6711L10.5898 25.8906Z" fill="url(#paint0_linear_2005_10928)"/>
<path d="M71.5321 26.0176V56.9259C71.4679 58.6718 70.6331 60.2237 69.4131 61.2583C68.3214 62.2282 66.9087 62.8102 65.3676 62.8102H16.5007C15.4091 62.8102 14.4459 62.5515 13.5469 62.0342C13.1616 61.8402 12.7763 61.5816 12.4552 61.2583C11.7489 60.6763 11.171 59.9004 10.8499 58.9951C10.593 58.3485 10.4004 57.7019 10.4004 56.9906V56.9259V26.0176L37.7556 43.2823L40.1315 44.7695L40.9663 44.2522L41.7368 43.7996L71.5321 26.0176Z" fill="#738DFF"/>
<g filter="url(#filter1_d_2005_10928)">
<path d="M69.4131 61.2583C68.3214 62.2282 66.9087 62.8102 65.3676 62.8102H16.5007C15.4091 62.8102 14.4459 62.5515 13.5469 62.0342C13.1616 61.8402 12.7763 61.5816 12.4552 61.2583C11.7489 60.6763 11.171 59.9004 10.8499 58.9951C10.593 58.3485 10.4004 57.7019 10.4004 56.9906V56.9259V26.0176L13.6111 27.9574L40.9663 44.3169L41.7368 44.7048L41.801 44.7695L66.3308 59.3831L69.4131 61.2583Z" fill="url(#paint1_linear_2005_10928)"/>
</g>
<path d="M41.7366 43.8026V45.9364L13.5466 62.0372C13.1613 61.8432 12.776 61.5846 12.455 61.2613C11.7486 60.6793 11.1707 59.9034 10.8496 58.9981L38.269 42.6387L40.6449 44.1259L40.966 44.2552L41.7366 43.8026Z" fill="url(#paint2_linear_2005_10928)"/>
<path d="M10.3359 26.0176L40.966 44.3169" stroke="#E43131" stroke-width="0.342961" stroke-miterlimit="10"/>
<g filter="url(#filter2_d_2005_10928)">
<path d="M71.53 26.0176V56.9259C71.4658 58.6718 70.631 60.2237 69.411 61.2583C68.3193 62.2282 66.9066 62.8102 65.3655 62.8102H16.4986C15.407 62.8102 14.4438 62.5515 13.5448 62.0342C13.1595 61.8402 12.7742 61.5816 12.4531 61.2583L15.5996 59.3831L40.1294 44.7695L40.9641 44.2522L41.7347 43.7996L68.3193 27.8928L71.53 26.0176Z" fill="url(#paint3_linear_2005_10928)"/>
</g>
<path d="M71.53 26.0176L41.7347 43.7996L40.9641 44.2522L40.1294 44.7695L12.4531 61.2583" stroke="#E43131" stroke-width="0.342961" stroke-miterlimit="10"/>
<path opacity="0.2" d="M64.1439 47.6159H47.8978C47.5125 47.6159 47.1914 47.2926 47.1914 46.9046C47.1914 46.5167 47.5125 46.1934 47.8978 46.1934H64.1439C64.5292 46.1934 64.8503 46.5167 64.8503 46.9046C64.8503 47.2926 64.5934 47.6159 64.1439 47.6159Z" fill="white"/>
<path opacity="0.2" d="M64.1439 52.3386H47.8978C47.5125 52.3386 47.1914 52.0153 47.1914 51.6273C47.1914 51.2393 47.5125 50.916 47.8978 50.916H64.1439C64.5292 50.916 64.8503 51.2393 64.8503 51.6273C64.8503 52.0153 64.5934 52.3386 64.1439 52.3386Z" fill="white"/>
<path d="M69.4359 5.05006C70.0963 5.05006 70.61 4.53154 70.61 3.86487C70.61 3.1982 70.0963 2.67969 69.4359 2.67969C68.7754 2.67969 68.2617 3.1982 68.2617 3.86487C68.2617 4.53154 68.7754 5.05006 69.4359 5.05006Z" fill="url(#paint4_linear_2005_10928)"/>
<defs>
<filter id="filter0_d_2005_10928" x="4.91302" y="0.606299" width="72.1056" height="71.1271" filterUnits="userSpaceOnUse" color-interpolation-filters="sRGB">
<feFlood flood-opacity="0" result="BackgroundImageFix"/>
<feColorMatrix in="SourceAlpha" type="matrix" values="0 0 0 0 0 0 0 0 0 0 0 0 0 0 0 0 0 0 127 0" result="hardAlpha"/>
<feOffset dy="3.42961"/>
<feGaussianBlur stdDeviation="2.74368"/>
<feColorMatrix type="matrix" values="0 0 0 0 0.894118 0 0 0 0 0.192157 0 0 0 0 0.192157 0 0 0 0.22 0"/>
<feBlend mode="normal" in2="BackgroundImageFix" result="effect1_dropShadow_2005_10928"/>
<feBlend mode="normal" in="SourceGraphic" in2="effect1_dropShadow_2005_10928" result="shape"/>
</filter>
<filter id="filter1_d_2005_10928" x="0.519831" y="22.3124" width="78.7728" height="56.5541" filterUnits="userSpaceOnUse" color-interpolation-filters="sRGB">
<feFlood flood-opacity="0" result="BackgroundImageFix"/>
<feColorMatrix in="SourceAlpha" type="matrix" values="0 0 0 0 0 0 0 0 0 0 0 0 0 0 0 0 0 0 127 0" result="hardAlpha"/>
<feOffset dy="6.17535"/>
<feGaussianBlur stdDeviation="4.94028"/>
<feColorMatrix type="matrix" values="0 0 0 0 0.894118 0 0 0 0 0.192157 0 0 0 0 0.192157 0 0 0 0.2 0"/>
<feBlend mode="normal" in2="BackgroundImageFix" result="effect1_dropShadow_2005_10928"/>
<feBlend mode="normal" in="SourceGraphic" in2="effect1_dropShadow_2005_10928" result="shape"/>
</filter>
<filter id="filter2_d_2005_10928" x="2.57257" y="22.3124" width="78.8373" height="56.5541" filterUnits="userSpaceOnUse" color-interpolation-filters="sRGB">
<feFlood flood-opacity="0" result="BackgroundImageFix"/>
<feColorMatrix in="SourceAlpha" type="matrix" values="0 0 0 0 0 0 0 0 0 0 0 0 0 0 0 0 0 0 127 0" result="hardAlpha"/>
<feOffset dy="6.17535"/>
<feGaussianBlur stdDeviation="4.94028"/>
<feColorMatrix type="matrix" values="0 0 0 0 0.894118 0 0 0 0 0.192157 0 0 0 0 0.192157 0 0 0 0.2 0"/>
<feBlend mode="normal" in2="BackgroundImageFix" result="effect1_dropShadow_2005_10928"/>
<feBlend mode="normal" in="SourceGraphic" in2="effect1_dropShadow_2005_10928" result="shape"/>
</filter>
<linearGradient id="paint0_linear_2005_10928" x1="40.8099" y1="53.5239" x2="40.8099" y2="27.2822" gradientUnits="userSpaceOnUse">
<stop stop-color="#E43131"/>
<stop offset="1" stop-color="#E43131" stop-opacity="0"/>
</linearGradient>
<linearGradient id="paint1_linear_2005_10928" x1="36.6799" y1="37.4156" x2="44.1066" y2="56.5635" gradientUnits="userSpaceOnUse">
<stop stop-color="#E43131"/>
<stop offset="1" stop-color="#A80E0E"/>
</linearGradient>
<linearGradient id="paint2_linear_2005_10928" x1="28.0434" y1="54.1196" x2="25.6169" y2="50.6027" gradientUnits="userSpaceOnUse">
<stop stop-color="#E43131"/>
<stop offset="1" stop-color="#E43131" stop-opacity="0"/>
</linearGradient>
<linearGradient id="paint3_linear_2005_10928" x1="38.7612" y1="37.4156" x2="46.182" y2="56.5689" gradientUnits="userSpaceOnUse">
<stop stop-color="#E43131"/>
<stop offset="1" stop-color="#A80E0E"/>
</linearGradient>
<linearGradient id="paint4_linear_2005_10928" x1="68.3161" y1="3.87177" x2="70.5487" y2="3.87177" gradientUnits="userSpaceOnUse">
<stop stop-color="#FF66A9"/>
<stop offset="1" stop-color="#F53689"/>
</linearGradient>
</defs>
</svg>
