<svg width="21" height="20" viewBox="0 0 21 20" fill="none" xmlns="http://www.w3.org/2000/svg">
<path d="M19.0065 8.36531H18.3353V8.33073H10.8353V11.6641H15.5449C14.8578 13.6045 13.0115 14.9974 10.8353 14.9974C8.07404 14.9974 5.83529 12.7586 5.83529 9.9974C5.83529 7.23615 8.07404 4.9974 10.8353 4.9974C12.1099 4.9974 13.2695 5.47823 14.1524 6.26365L16.5095 3.90656C15.0211 2.51948 13.0303 1.66406 10.8353 1.66406C6.2332 1.66406 2.50195 5.39531 2.50195 9.9974C2.50195 14.5995 6.2332 18.3307 10.8353 18.3307C15.4374 18.3307 19.1686 14.5995 19.1686 9.9974C19.1686 9.43865 19.1111 8.89323 19.0065 8.36531Z" fill="#FFC107"/>
<path d="M3.46289 6.11865L6.20081 8.12656C6.94164 6.2924 8.73581 4.9974 10.8354 4.9974C12.11 4.9974 13.2696 5.47823 14.1525 6.26365L16.5096 3.90656C15.0212 2.51948 13.0304 1.66406 10.8354 1.66406C7.63456 1.66406 4.85872 3.47115 3.46289 6.11865Z" fill="#FF3D00"/>
<path d="M10.8348 18.3317C12.9873 18.3317 14.9431 17.5079 16.4218 16.1683L13.8427 13.9858C12.9781 14.6438 11.9213 14.9995 10.8348 14.9983C8.66727 14.9983 6.82685 13.6163 6.13352 11.6875L3.41602 13.7812C4.79518 16.48 7.59602 18.3317 10.8348 18.3317Z" fill="#4CAF50"/>
<path d="M19.0052 8.37052H18.334V8.33594H10.834V11.6693H15.5436C15.2149 12.5928 14.6229 13.3998 13.8407 13.9905L13.8419 13.9897L16.4211 16.1722C16.2386 16.338 19.1673 14.1693 19.1673 10.0026C19.1673 9.44385 19.1098 8.89844 19.0052 8.37052Z" fill="#1976D2"/>
</svg>
