<svg width="11" height="11" viewBox="0 0 11 11" fill="none" xmlns="http://www.w3.org/2000/svg">
<path d="M5.5 11C4.26617 11 3.10621 10.5195 2.23377 9.64706C1.36134 8.77463 0.880859 7.61466 0.880859 6.38086C0.880859 5.33919 1.23529 4.31441 1.87885 3.49529L2.35731 2.88636C2.9292 2.15854 3.24414 1.24792 3.24414 0.322266C3.24414 0.144289 3.38843 0 3.56641 0L3.59915 0.000107422C4.42447 0.00541406 5.19926 0.331869 5.78087 0.919316C6.36174 1.50601 6.68164 2.28385 6.68164 3.10952V3.64008C7.05678 3.50709 7.32617 3.14866 7.32617 2.72849V2.07558C7.32617 1.94713 7.40248 1.8309 7.52037 1.77985C7.63825 1.7288 7.7752 1.75263 7.86891 1.84052C8.54509 2.47476 9.11475 3.2432 9.51633 4.06274C9.9107 4.86756 10.1191 5.66915 10.1191 6.38086C10.1191 7.61466 9.63866 8.77463 8.76623 9.64706C7.89379 10.5195 6.73383 11 5.5 11Z" fill="url(#paint0_linear_1786_3410)"/>
<path d="M5.50024 11C4.02871 11 3.12879 9.38454 3.90335 8.13336L5.22623 5.99639C5.35221 5.79287 5.64826 5.79287 5.77425 5.99639L7.09713 8.13336C7.87166 9.38454 6.97177 11 5.50024 11Z" fill="url(#paint1_linear_1786_3410)"/>
<defs>
<linearGradient id="paint0_linear_1786_3410" x1="5.5" y1="11" x2="5.5" y2="0" gradientUnits="userSpaceOnUse">
<stop stop-color="#FF2C7C"/>
<stop offset="1" stop-color="#FFA66E"/>
</linearGradient>
<linearGradient id="paint1_linear_1786_3410" x1="5.50024" y1="11" x2="5.50024" y2="5.84377" gradientUnits="userSpaceOnUse">
<stop stop-color="#FFC8D1"/>
<stop offset="1" stop-color="#FFF6F7"/>
</linearGradient>
</defs>
</svg>
