<svg width="20" height="20" viewBox="0 0 20 20" fill="none" xmlns="http://www.w3.org/2000/svg">
<g clip-path="url(#clip0_2093_17185)">
<path d="M11.668 1.66406H5.0013C3.16035 1.66406 1.66797 3.15645 1.66797 4.9974V14.9974C1.66797 16.8383 3.16035 18.3307 5.0013 18.3307H15.0013C16.8423 18.3307 18.3346 16.8383 18.3346 14.9974V8.33073M15.8346 1.66406V6.66406M18.3346 4.16406L13.3346 4.16406M18.3346 11.6641L15.8855 9.90066C14.6128 8.98434 12.8735 9.07905 11.7079 10.1281L8.29471 13.2C7.12906 14.2491 5.3898 14.3438 4.11714 13.4275L1.66797 11.6641M9.16797 7.08073C9.16797 8.23132 8.23523 9.16406 7.08464 9.16406C5.93404 9.16406 5.0013 8.23132 5.0013 7.08073C5.0013 5.93014 5.93404 4.9974 7.08464 4.9974C8.23523 4.9974 9.16797 5.93014 9.16797 7.08073Z" stroke="#111827" stroke-width="1.5" stroke-linecap="round"/>
</g>
<defs>
<clipPath id="clip0_2093_17185">
<rect width="20" height="20" fill="white"/>
</clipPath>
</defs>
</svg>
