<svg width="20" height="20" viewBox="0 0 20 20" fill="none" xmlns="http://www.w3.org/2000/svg">
<path d="M8.33268 5H13.3327M8.33268 11.6667H13.3327M8.33268 8.33333H18.3327M8.33268 15H18.3327M2.49935 8.33333H4.16602C4.62625 8.33333 4.99935 7.96024 4.99935 7.5V5.83333C4.99935 5.3731 4.62625 5 4.16602 5H2.49935C2.03911 5 1.66602 5.3731 1.66602 5.83333V7.5C1.66602 7.96024 2.03911 8.33333 2.49935 8.33333ZM2.49935 15H4.16602C4.62625 15 4.99935 14.6269 4.99935 14.1667V12.5C4.99935 12.0398 4.62625 11.6667 4.16602 11.6667H2.49935C2.03911 11.6667 1.66602 12.0398 1.66602 12.5V14.1667C1.66602 14.6269 2.03911 15 2.49935 15Z" stroke="#334155" stroke-width="1.25" stroke-linecap="round"/>
</svg>
