<svg width="41" height="41" viewBox="0 0 41 41" fill="none" xmlns="http://www.w3.org/2000/svg">
<path d="M20.4982 2.27734C9.1777 2.27734 0 11.455 0 22.7756C0 29.2159 2.97282 34.9618 7.61757 38.7194L9.02549 31.782C6.19061 28.7854 4.81835 25.4487 4.32843 24.1978C3.92413 24.583 3.64587 25.0967 3.56977 25.6794C3.39854 25.3607 3.32005 24.9897 3.36286 24.6044C3.47939 23.5628 4.4521 22.8089 5.53421 22.923C6.02889 22.9753 6.46173 23.1989 6.77328 23.5271C6.6734 23.5057 6.57113 23.4867 6.46649 23.4771C5.99559 23.4272 5.54134 23.5009 5.13466 23.6722C5.97657 25.2371 9.0802 30.1505 15.7417 31.9937C18.8144 32.8427 22.0869 32.8427 25.1596 31.9937C31.8211 30.1505 34.9271 25.2371 35.7667 23.6722C35.3623 23.5033 34.9057 23.4272 34.4348 23.4771C34.3302 23.489 34.2279 23.5057 34.128 23.5271C34.4396 23.1989 34.8724 22.9753 35.3671 22.923C36.4492 22.8089 37.4219 23.5628 37.5384 24.6044C37.5813 24.9897 37.5028 25.3584 37.3315 25.6794C37.2554 25.0967 36.9772 24.583 36.5729 24.1978C36.0877 25.4368 34.7345 28.726 31.9519 31.7012L33.3765 38.7218C38.0236 34.9641 40.9941 29.2183 40.9941 22.7779C40.9964 11.4527 31.8187 2.27734 20.4982 2.27734ZM20.4982 9.95436C23.3188 9.95436 25.6139 12.7821 25.6139 16.2591H23.7374C23.7374 13.819 22.2843 11.8332 20.4982 11.8332C18.7121 11.8332 17.259 13.819 17.259 16.2591H15.3826C15.3826 12.7821 17.6776 9.95436 20.4982 9.95436ZM24.9099 30.6167C23.4615 31.0162 21.9632 31.2208 20.4507 31.2208C18.9405 31.2208 17.4398 31.0186 15.9914 30.6167C13.3872 29.8961 11.3586 28.6832 9.81746 27.3989L11.8651 17.2984H29.1265L31.16 27.3299C29.6117 28.6403 27.5593 29.8842 24.9099 30.6167Z" fill="#E43131"/>
</svg>
