<svg width="20" height="20" viewBox="0 0 20 20" fill="none" xmlns="http://www.w3.org/2000/svg">
<path d="M2.08398 10.0007C2.08398 6.2687 2.08398 4.40273 3.24335 3.24335C4.40273 2.08398 6.2687 2.08398 10.0007 2.08398C13.7326 2.08398 15.5986 2.08398 16.758 3.24335C17.9173 4.40273 17.9173 6.2687 17.9173 10.0007C17.9173 13.7326 17.9173 15.5986 16.758 16.758C15.5986 17.9173 13.7326 17.9173 10.0007 17.9173C6.2687 17.9173 4.40273 17.9173 3.24335 16.758C2.08398 15.5986 2.08398 13.7326 2.08398 10.0007Z" stroke="#22C55E" stroke-width="1.5"/>
<path d="M9.16602 5.83398H14.166" stroke="#22C55E" stroke-width="1.5" stroke-linecap="round"/>
<path d="M5.83398 5.83398H6.66732" stroke="#22C55E" stroke-width="1.5" stroke-linecap="round"/>
<path d="M5.83398 10H6.66732" stroke="#22C55E" stroke-width="1.5" stroke-linecap="round"/>
<path d="M5.83398 14.166H6.66732" stroke="#22C55E" stroke-width="1.5" stroke-linecap="round"/>
<path d="M9.16602 10H14.166" stroke="#22C55E" stroke-width="1.5" stroke-linecap="round"/>
<path d="M9.16602 14.166H14.166" stroke="#22C55E" stroke-width="1.5" stroke-linecap="round"/>
</svg>
