<svg width="24" height="24" viewBox="0 0 24 24" fill="none" xmlns="http://www.w3.org/2000/svg">
<path d="M15.5 18C15.5 19.933 13.933 21.5 12 21.5C10.067 21.5 8.5 19.933 8.5 18" stroke="#334155" stroke-width="1.5" stroke-linecap="round" stroke-linejoin="round"/>
<path d="M19.2311 18H4.76887C3.79195 18 3 17.208 3 16.2311C3 15.762 3.18636 15.3121 3.51809 14.9803L4.12132 14.3771C4.68393 13.8145 5 13.0514 5 12.2558V9.5C5 5.63401 8.13401 2.5 12 2.5C15.866 2.5 19 5.634 19 9.5V12.2558C19 13.0514 19.3161 13.8145 19.8787 14.3771L20.4819 14.9803C20.8136 15.3121 21 15.762 21 16.2311C21 17.208 20.208 18 19.2311 18Z" stroke="#334155" stroke-width="1.5" stroke-linecap="round" stroke-linejoin="round"/>
<circle cx="18" cy="6" r="6" fill="#FACC15"/>
<path d="M19.834 9H15.791V8.41113C16.3271 7.94824 16.7812 7.5293 17.1533 7.1543C17.5254 6.7793 17.8257 6.43652 18.0542 6.12598C18.2856 5.81543 18.4541 5.52539 18.5596 5.25586C18.668 4.9834 18.7222 4.71973 18.7222 4.46484C18.7222 4.19824 18.6724 3.96387 18.5728 3.76172C18.4731 3.55957 18.3325 3.40283 18.1509 3.2915C17.9722 3.18018 17.7656 3.12451 17.5312 3.12451C17.2617 3.12451 17.0039 3.20215 16.7578 3.35742C16.5117 3.50977 16.3081 3.7207 16.147 3.99023L15.6328 3.38379C15.8701 3.03223 16.1704 2.75977 16.5337 2.56641C16.8999 2.37305 17.2896 2.27637 17.7026 2.27637C18.0864 2.27637 18.4292 2.36133 18.731 2.53125C19.0356 2.69824 19.2744 2.93115 19.4473 3.22998C19.623 3.52881 19.7109 3.87744 19.7109 4.27588C19.7109 4.5835 19.6553 4.89844 19.5439 5.2207C19.4326 5.54004 19.2671 5.86377 19.0474 6.19189C18.8306 6.51709 18.561 6.84375 18.2388 7.17188C17.9194 7.5 17.5532 7.82666 17.1401 8.15186H19.834V9Z" fill="#111827"/>
</svg>
