<svg width="20" height="20" viewBox="0 0 20 20" fill="none" xmlns="http://www.w3.org/2000/svg">
<path d="M8.33268 3.33268C8.33268 2.41221 9.07885 1.66602 9.99935 1.66602H10.8327C11.7532 1.66602 12.4993 2.41221 12.4993 3.33268V5.46049C12.4993 6.55437 13.2105 7.52123 14.2548 7.84703L14.9106 8.05167C15.9548 8.37743 16.666 9.34435 16.666 10.4382V11.666C16.666 12.1263 16.2929 12.4993 15.8327 12.4993H4.99935C4.53912 12.4993 4.16602 12.1263 4.16602 11.666V10.4382C4.16602 9.34435 4.87717 8.37743 5.92142 8.05167L6.57728 7.84703C7.62152 7.52123 8.33268 6.55437 8.33268 5.46049V3.33268Z" stroke="#334155" stroke-width="1.25"/>
<path d="M5.00246 12.5C5.13229 13.5902 4.5804 16.261 3.33398 18.2233C3.33398 18.2233 11.911 19.2162 13.0716 14.9528V16.5593C13.0716 17.3438 13.0716 17.7359 13.3159 17.9796C13.7857 18.4481 15.9916 18.4609 16.4622 17.9601C16.7093 17.6969 16.6846 17.3183 16.6349 16.5609C16.5531 15.3122 16.3283 13.7132 15.7109 12.5" stroke="#334155" stroke-width="1.25" stroke-linecap="round" stroke-linejoin="round"/>
</svg>
