<svg width="26" height="18" viewBox="0 0 26 18" fill="none" xmlns="http://www.w3.org/2000/svg">
<rect x="0.375" y="0.375" width="25.25" height="17.25" fill="#F8FAFC"/>
<rect x="0.375" y="0.375" width="25.25" height="17.25" stroke="#CBD5E1" stroke-width="0.75"/>
<g clip-path="url(#clip0_1865_61419)">
<path d="M16.4837 3.93483C15.9394 3.30376 14.9555 3.0332 13.6968 3.0332H10.0437C9.91913 3.03318 9.79867 3.07837 9.70395 3.16064C9.60924 3.2429 9.54649 3.35684 9.52699 3.48197L8.0059 13.2952C7.97567 13.4887 8.12297 13.664 8.31578 13.664H10.5711L11.1375 10.0095L11.1199 10.1239C11.1603 9.86561 11.3775 9.67508 11.6347 9.67508H12.7064C14.8118 9.67508 16.4603 8.8052 16.9419 6.28882C16.9562 6.2144 16.9686 6.14196 16.9793 6.07119C16.9185 6.03845 16.9185 6.03845 16.9793 6.07119C17.1227 5.14111 16.9783 4.50801 16.4837 3.93483Z" fill="#27346A"/>
<path d="M12.0005 5.73614C12.0621 5.70623 12.1296 5.69075 12.1979 5.69085H15.0618C15.401 5.69085 15.7173 5.7133 16.0064 5.76062C16.0873 5.77375 16.1677 5.78941 16.2477 5.80759C16.361 5.83302 16.4729 5.86415 16.5832 5.90085C16.7253 5.94912 16.8577 6.00535 16.9793 6.07119C17.1227 5.14075 16.9783 4.50801 16.4837 3.93483C15.9391 3.30376 14.9555 3.0332 13.6968 3.0332H10.0434C9.78613 3.0332 9.56731 3.22369 9.52699 3.48197L8.0059 13.2949C7.97567 13.4887 8.12297 13.6637 8.31547 13.6637H10.5711L11.7462 6.08343C11.7578 6.00892 11.787 5.93839 11.8312 5.8779C11.8755 5.8174 11.9336 5.76876 12.0005 5.73614Z" fill="#27346A"/>
<path d="M16.9421 6.28794C16.4605 8.80397 14.812 9.67421 12.7066 9.67421H11.6346C11.3774 9.67421 11.1601 9.86474 11.1202 10.1231L10.4155 14.667C10.3892 14.8363 10.518 14.9898 10.6864 14.9898H12.5876C12.6965 14.9897 12.8018 14.9502 12.8846 14.8782C12.9674 14.8063 13.0222 14.7066 13.0392 14.5972L13.0578 14.4986L13.4161 12.1886L13.4392 12.0609C13.4562 11.9515 13.511 11.8519 13.5938 11.7799C13.6766 11.7079 13.7819 11.6684 13.8908 11.6684H14.1753C16.017 11.6684 17.4591 10.9073 17.8805 8.7061C18.0564 7.78623 17.9654 7.01823 17.5001 6.47879C17.3589 6.3154 17.1837 6.18046 16.9795 6.07031C16.9684 6.14144 16.9564 6.21352 16.9421 6.28794Z" fill="#2790C3"/>
<path d="M16.4742 5.86544C16.3991 5.84314 16.3233 5.82339 16.2469 5.80624C16.1669 5.78835 16.0865 5.77279 16.0056 5.75959C15.7162 5.71194 15.4002 5.68945 15.0607 5.68945H12.1971C12.1287 5.68934 12.0613 5.70495 11.9997 5.73511C11.9327 5.76761 11.8746 5.81622 11.8303 5.87673C11.786 5.93725 11.7568 6.00784 11.7454 6.08239L11.1367 10.0081L11.1191 10.1226C11.1592 9.86426 11.3764 9.67373 11.6336 9.67373H12.7056C14.811 9.67373 16.4595 8.80385 16.9411 6.28747C16.9554 6.21304 16.9675 6.14092 16.9785 6.06984C16.8566 6.00441 16.7246 5.94773 16.5824 5.89981C16.5466 5.88771 16.5105 5.87626 16.4742 5.86544" fill="#1F264F"/>
</g>
<defs>
<clipPath id="clip0_1865_61419">
<rect width="10" height="12" fill="white" transform="translate(8 3)"/>
</clipPath>
</defs>
</svg>
