<svg width="14" height="14" viewBox="0 0 14 14" fill="none" xmlns="http://www.w3.org/2000/svg">
<path d="M4.07617 2.15893C5.70777 3.96409 8.39854 0.0680882 9.99069 1.48199C10.9068 2.29554 10.6172 4.09182 9.42789 5.26214" stroke="#E43131" stroke-linecap="round"/>
<path d="M8.04383 8.15649C8.05421 7.96136 8.10899 7.6043 7.81224 7.333M7.81224 7.333C7.72043 7.249 7.59489 7.17322 7.42404 7.11302C6.81247 6.89748 6.06125 7.61889 6.59267 8.27928C6.87833 8.6343 7.09854 8.74344 7.07783 9.14658C7.06324 9.43014 6.78464 9.72641 6.41755 9.83923C6.09864 9.93729 5.74682 9.8075 5.52431 9.55882C5.25261 9.25525 5.28005 8.96907 5.27773 8.8443M7.81224 7.333L8.14714 6.99805M5.54853 9.59668L5.23047 9.91471" stroke="#E43131" stroke-linecap="round" stroke-linejoin="round"/>
<path d="M10.6597 3.8694C11.1995 3.97308 11.3206 4.31401 11.4818 5.26005C11.627 6.11205 11.6677 7.13452 11.6677 7.56974C11.6529 7.73016 11.5871 7.87984 11.4818 8.00193C10.353 9.18499 8.11272 11.419 6.98204 12.5288C6.5383 12.925 5.86881 12.9335 5.39789 12.5699C4.43356 11.7025 3.50704 10.722 2.5994 9.83657C2.23477 9.36693 2.24332 8.69931 2.64062 8.25685C3.83677 7.01598 6.00122 4.89196 7.22307 3.71857C7.34557 3.6136 7.49567 3.54794 7.65649 3.5332C7.93066 3.53313 8.40094 3.56998 8.85909 3.59654" stroke="#E43131" stroke-linecap="round"/>
</svg>
