<svg width="12" height="12" viewBox="0 0 12 12" fill="none" xmlns="http://www.w3.org/2000/svg">
<g clip-path="url(#clip0_1971_11279)">
<path d="M4 8L8.36005 7.63665C9.7243 7.523 10.0306 7.225 10.1818 5.86445L10.5 3" stroke="#111827" stroke-width="0.75" stroke-linecap="round"/>
<path d="M3 3H3.25M11 3H9.75" stroke="#111827" stroke-width="0.75" stroke-linecap="round"/>
<path d="M4.75 3H8.25M6.5 4.75V1.25" stroke="#111827" stroke-width="0.75" stroke-linecap="round"/>
<path d="M3 11C3.55228 11 4 10.5523 4 10C4 9.44772 3.55228 9 3 9C2.44772 9 2 9.44772 2 10C2 10.5523 2.44772 11 3 11Z" stroke="#111827" stroke-width="0.75"/>
<path d="M8.5 11C9.05228 11 9.5 10.5523 9.5 10C9.5 9.44772 9.05228 9 8.5 9C7.94772 9 7.5 9.44772 7.5 10C7.5 10.5523 7.94772 11 8.5 11Z" stroke="#111827" stroke-width="0.75"/>
<path d="M4 10H7.5" stroke="#111827" stroke-width="0.75" stroke-linecap="round"/>
<path d="M1 1H1.483C1.95534 1 2.36707 1.3123 2.48163 1.75747L3.96926 7.53825C4.04443 7.8304 3.9801 8.13985 3.79412 8.3808L3.31607 9" stroke="#111827" stroke-width="0.75" stroke-linecap="round"/>
</g>
<defs>
<clipPath id="clip0_1971_11279">
<rect width="12" height="12" fill="white"/>
</clipPath>
</defs>
</svg>
