<svg width="14" height="14" viewBox="0 0 14 14" fill="none" xmlns="http://www.w3.org/2000/svg">
<path d="M1.29981 6.4661L3.71426 8.65303L2.991 11.909C2.95272 12.0792 2.96364 12.2573 3.02239 12.4211C3.08114 12.5849 3.18511 12.7271 3.32131 12.8299C3.4575 12.9328 3.61987 12.9916 3.78813 12.9992C3.95638 13.0067 4.12304 12.9626 4.26728 12.8724L7.00348 11.15L9.73379 12.8724C9.87803 12.9626 10.0447 13.0067 10.2129 12.9992C10.3812 12.9916 10.5436 12.9328 10.6798 12.8299C10.816 12.7271 10.9199 12.5849 10.9787 12.4211C11.0374 12.2573 11.0483 12.0792 11.0101 11.909L10.2879 8.65636L12.7029 6.4661C12.8306 6.35176 12.923 6.20084 12.9684 6.03224C13.0138 5.86364 13.0102 5.68488 12.9581 5.51838C12.9061 5.35187 12.8078 5.20503 12.6756 5.09628C12.5434 4.98752 12.3832 4.92168 12.2152 4.90702L9.03194 4.62088L7.78938 1.54495C7.72449 1.38356 7.61504 1.24569 7.47481 1.14872C7.33458 1.05174 7.16984 1 7.00134 1C6.83283 1 6.66809 1.05174 6.52786 1.14872C6.38763 1.24569 6.27818 1.38356 6.2133 1.54495L4.96699 4.62088L1.78484 4.90702C1.61676 4.92168 1.45659 4.98752 1.32441 5.09628C1.19224 5.20503 1.09395 5.35187 1.04186 5.51838C0.989776 5.68488 0.986216 5.86364 1.03163 6.03224C1.07704 6.20084 1.1694 6.35176 1.29713 6.4661H1.29981Z" fill="#FACC15"/>
</svg>
