<svg width="73" height="78" viewBox="0 0 73 78" fill="none" xmlns="http://www.w3.org/2000/svg">
<path d="M36.4994 72C56.2929 72 72.3387 55.8822 72.3387 36C72.3387 16.1178 56.2929 0 36.4994 0C16.7059 0 0.660156 16.1178 0.660156 36C0.660156 55.8822 16.7059 72 36.4994 72Z" fill="#FEF7F7"/>
<g filter="url(#filter0_d_1838_55960)">
<path d="M53.5405 24.7246C52.6499 24.7246 50.5124 23.9194 49.7999 23.651C46.0592 21.9513 39.9139 16.9414 36.5296 16.9414C33.1452 16.9414 26.9999 21.8618 23.2593 23.651C22.6358 23.9194 20.4093 24.7246 19.5186 24.7246C18.0936 24.814 17.0249 26.0665 17.203 27.4084C17.5593 30.7185 18.4499 36.623 20.7655 44.2273C23.7936 53.6207 32.1655 59.2568 35.3717 61.1355C36.1733 61.5828 37.0639 61.5828 37.8655 61.1355C41.0717 59.2568 49.4436 53.6207 52.2936 44.2273C54.6092 36.623 55.4998 30.7185 55.8561 27.4084C56.0342 26.0665 54.9655 24.814 53.5405 24.7246Z" fill="url(#paint0_linear_1838_55960)"/>
</g>
<path d="M52.3828 28.0339C52.0265 30.7178 51.314 35.2803 49.7109 41.0059C49.5328 41.7216 49.2656 42.5268 48.9984 43.2424C46.5937 51.0256 39.825 55.946 36.5297 57.9142C36.1734 57.7353 35.8172 57.4669 35.4609 57.1985C31.9875 54.8725 26.2875 50.2205 24.15 43.2424C22.1016 36.5328 21.2109 31.0756 20.7656 28.0339C22.3687 27.6761 24.3281 26.9604 24.6844 26.7815C26.1984 26.0658 27.8906 25.0817 29.6719 23.9187C31.6312 22.6662 35.2828 20.4297 36.5297 20.4297C37.7765 20.4297 41.4281 22.7557 43.3875 23.9187C45.1687 24.9922 46.8609 26.0658 48.375 26.7815C48.8203 26.8709 50.7797 27.6761 52.3828 28.0339Z" fill="url(#paint1_linear_1838_55960)"/>
<path d="M41.3895 50.7747C40.7853 51.1976 40.0552 51.6296 39.3838 51.994C32.4602 56.2865 24.1242 55.5544 20.3463 54.8757C20.195 54.5069 20.1025 54.0705 20.01 53.6342L27.2546 35.2709L29.9583 36.9124L31.035 41.6445L41.411 42.6102L44.0138 43.6894C43.9551 43.7569 42.7729 46.8789 41.3895 50.7747Z" fill="url(#paint2_linear_1838_55960)"/>
<g clip-path="url(#clip0_1838_55960)">
<path d="M44.0999 42.5098C44.1751 42.9435 44.2503 43.3772 44.3256 43.811C44.6039 45.4152 43.2083 46.8675 41.4312 46.7934C32.9922 46.4412 26.1405 40.1851 25.7549 32.4798C25.6737 30.8572 27.2643 29.583 29.0214 29.8371C29.4964 29.9058 29.9714 29.9745 30.4464 30.0432C31.7432 30.2307 32.7258 31.2093 32.8223 32.4048C32.8469 32.7093 32.8892 33.0096 32.9481 33.3049C33.183 34.4807 32.4801 35.6467 31.2809 36.126L30.4871 36.4434C31.7804 39.1258 34.1512 41.2908 37.089 42.472C37.2048 42.2306 37.3206 41.9891 37.4364 41.7476C37.9617 40.6526 39.2389 40.0108 40.527 40.2254C40.8506 40.2793 41.1798 40.3179 41.5136 40.3404C42.8229 40.4286 43.8945 41.3258 44.0999 42.5098Z" fill="#7D92FB"/>
<path d="M44.0999 42.5098C44.1751 42.9435 44.2503 43.3772 44.3256 43.811C44.6039 45.4152 43.2083 46.8675 41.4312 46.7934C32.9922 46.4412 26.1405 40.1851 25.7549 32.4798C25.6737 30.8572 27.2643 29.583 29.0214 29.8371C29.4964 29.9058 29.9714 29.9745 30.4464 30.0432C31.7432 30.2307 32.7258 31.2093 32.8223 32.4048C32.8469 32.7093 32.8892 33.0096 32.9481 33.3049C33.183 34.4807 32.4801 35.6467 31.2809 36.126L30.4871 36.4434C31.7804 39.1258 34.1512 41.2908 37.089 42.472C37.2048 42.2306 37.3206 41.9891 37.4364 41.7476C37.9617 40.6526 39.2389 40.0108 40.527 40.2254C40.8506 40.2793 41.1798 40.3179 41.5136 40.3404C42.8229 40.4286 43.8945 41.3258 44.0999 42.5098Z" fill="url(#paint3_linear_1838_55960)"/>
</g>
<defs>
<filter id="filter0_d_1838_55960" x="7.30303" y="13.2362" width="58.4525" height="64.2904" filterUnits="userSpaceOnUse" color-interpolation-filters="sRGB">
<feFlood flood-opacity="0" result="BackgroundImageFix"/>
<feColorMatrix in="SourceAlpha" type="matrix" values="0 0 0 0 0 0 0 0 0 0 0 0 0 0 0 0 0 0 127 0" result="hardAlpha"/>
<feOffset dy="6.17535"/>
<feGaussianBlur stdDeviation="4.94028"/>
<feColorMatrix type="matrix" values="0 0 0 0 0.894118 0 0 0 0 0.192157 0 0 0 0 0.192157 0 0 0 0.2 0"/>
<feBlend mode="normal" in2="BackgroundImageFix" result="effect1_dropShadow_1838_55960"/>
<feBlend mode="normal" in="SourceGraphic" in2="effect1_dropShadow_1838_55960" result="shape"/>
</filter>
<linearGradient id="paint0_linear_1838_55960" x1="34.4139" y1="30.7363" x2="47.0332" y2="48.362" gradientUnits="userSpaceOnUse">
<stop stop-color="#E43131"/>
<stop offset="1" stop-color="#A80E0E"/>
</linearGradient>
<linearGradient id="paint1_linear_1838_55960" x1="51.0309" y1="39.1547" x2="19.731" y2="39.1547" gradientUnits="userSpaceOnUse">
<stop stop-color="#940000"/>
<stop offset="1" stop-color="#AD1111"/>
</linearGradient>
<linearGradient id="paint2_linear_1838_55960" x1="33.4846" y1="39.6373" x2="31.7883" y2="50.2392" gradientUnits="userSpaceOnUse">
<stop stop-color="#E43131"/>
<stop offset="1" stop-color="#E43131" stop-opacity="0"/>
</linearGradient>
<linearGradient id="paint3_linear_1838_55960" x1="38.5438" y1="40.4451" x2="32.0132" y2="34.448" gradientUnits="userSpaceOnUse">
<stop offset="0.0113208" stop-color="#FFE6E6"/>
<stop offset="1" stop-color="white"/>
</linearGradient>
<clipPath id="clip0_1838_55960">
<rect width="20.0517" height="18.3081" fill="white" transform="translate(25.0312 29.1465)"/>
</clipPath>
</defs>
</svg>
