<svg width="26" height="18" viewBox="0 0 26 18" fill="none" xmlns="http://www.w3.org/2000/svg">
<rect x="0.375" y="0.375" width="25.25" height="17.25" fill="#F8FAFC"/>
<rect x="0.375" y="0.375" width="25.25" height="17.25" stroke="#CBD5E1" stroke-width="0.75"/>
<g clip-path="url(#clip0_1865_61369)">
<path d="M13.0626 8.09252C13.0537 8.78625 13.6876 9.17336 14.1651 9.40354C14.6557 9.63969 14.8205 9.79113 14.8186 10.0023C14.8149 10.3255 14.4272 10.4682 14.0645 10.4737C13.4316 10.4834 13.0636 10.3047 12.771 10.1695L12.543 11.2249C12.8365 11.3587 13.38 11.4753 13.9436 11.4805C15.2666 11.4805 16.1322 10.8344 16.1369 9.83282C16.142 8.56161 14.3594 8.49125 14.3716 7.92306C14.3758 7.75077 14.542 7.56691 14.9061 7.52017C15.0864 7.49655 15.584 7.47848 16.1481 7.73547L16.3696 6.71438C16.0662 6.60511 15.6762 6.50047 15.1908 6.50047C13.9455 6.50047 13.0697 7.15529 13.0626 8.09252ZM18.4972 6.58842C18.2556 6.58842 18.052 6.72782 17.9612 6.94173L16.0713 11.4055H17.3934L17.6564 10.6863H19.2719L19.4245 11.4055H20.5897L19.5729 6.58842H18.4972ZM18.6821 7.88969L19.0637 9.69854H18.0188L18.6821 7.88969ZM11.4598 6.58848L10.4177 11.4054H11.6775L12.7191 6.58836L11.4598 6.58848ZM9.59611 6.58848L8.28487 9.8671L7.75445 7.07932C7.69221 6.76812 7.44643 6.58842 7.17349 6.58842H5.03002L5 6.7283C5.44004 6.82276 5.94001 6.97511 6.24292 7.13812C6.42829 7.2377 6.48115 7.32475 6.54204 7.56137L7.54667 11.4055H8.87795L10.919 6.58842L9.59611 6.58848Z" fill="url(#paint0_linear_1865_61369)"/>
</g>
<defs>
<linearGradient id="paint0_linear_1865_61369" x1="721.723" y1="21.4703" x2="735.983" y2="-489.992" gradientUnits="userSpaceOnUse">
<stop stop-color="#222357"/>
<stop offset="1" stop-color="#254AA5"/>
</linearGradient>
<clipPath id="clip0_1865_61369">
<rect width="16" height="5" fill="white" transform="translate(5 6.5)"/>
</clipPath>
</defs>
</svg>
