<svg width="22" height="20" viewBox="0 0 22 20" fill="none" xmlns="http://www.w3.org/2000/svg">
<path d="M10.6143 19.1436C10.8516 19.2858 11.1484 19.2858 11.3857 19.1436C11.6661 18.9637 12.5137 18.4196 12.9912 18.0869C13.9449 17.4224 15.2205 16.4732 16.499 15.335C17.7743 14.1996 19.0728 12.8587 20.0576 11.4102C21.0377 9.9685 21.75 8.3565 21.75 6.69434C21.7499 3.45202 19.3484 0.75 16 0.75C14.4082 0.75 12.8662 1.26268 11 2.96484C9.1338 1.26268 7.59184 0.75 6 0.75C2.65156 0.75 0.25005 3.45202 0.25 6.69434C0.25 8.3565 0.96225 9.9685 1.94238 11.4102C2.92725 12.8587 4.22567 14.1996 5.50098 15.335C6.77947 16.4732 8.05506 17.4224 9.0088 18.0869C9.4863 18.4196 10.3339 18.9637 10.6143 19.1436Z" fill="#111827"/>
</svg>
